<svg id="Layer_1" data-name="Layer 1" xmlns="http://www.w3.org/2000/svg" viewBox="0 0 512 512"><title>id-card-glyph</title><path d="M456.65,65H55.35A55.35,55.35,0,0,0,0,120.4V391.63A55.34,55.34,0,0,0,55.35,447H456.65A55.34,55.34,0,0,0,512,391.63V120.4A55.35,55.35,0,0,0,456.65,65ZM147.14,138A53.12,53.12,0,1,1,94,191.17,53.13,53.13,0,0,1,147.14,138Zm90,235.94h-180c0-.31,0-.6,0-.92,0-66.15,40.32-119.75,90.05-119.75s90,53.6,90,119.75C237.18,373.38,237.16,373.67,237.16,374Zm217.76-36.67a11.1,11.1,0,0,1-11.07,11.06H257.39a170.67,170.67,0,0,0-7.92-33.21H443.84a11.1,11.1,0,0,1,11.07,11.06Zm0-72a11.1,11.1,0,0,1-11.07,11.06H228.71c-8.89-12-19.22-22.23-30.9-29.77,1.19-1.08,2.29-2.27,3.42-3.44H443.84a11.1,11.1,0,0,1,11.07,11.06Zm0-72a11.1,11.1,0,0,1-11.07,11.06H221.11a73.73,73.73,0,0,0,1.28-13.29,75.3,75.3,0,0,0-2.75-19.92h224.2a11.1,11.1,0,0,1,11.07,11.06Z" fill="#212121"/></svg>