<svg id="Layer_1" data-name="Layer 1" xmlns="http://www.w3.org/2000/svg" viewBox="0 0 512 512"><defs><style>.cls-1{fill:#707070;}</style></defs><title>man-3-handdrawn</title><path class="cls-1" d="M56.13,480.65a44.85,44.85,0,0,1-1.5-7.31,43,43,0,0,1-.25-6.89l.53-11.21c.11-1.87.15-3.75.32-5.62L56,444l1.68-11.11c3.31-14.53,7.64-28.62,13.94-40.62,2.42-4.85,5.35-10.36,5-9.31-1.23,3-2.37,6.44-3.74,10a95.75,95.75,0,0,0-3.85,11.56c-.49,1.77-1.49,4.77-3.08,9.29s-2.9,10.85-5.08,18.92l-2.33,14.8c-.8,4.94-.7,10-1.08,15l-.19,3.76-.09,1.9.1,2.4a40.76,40.76,0,0,0,11.27,26,40.89,40.89,0,0,0,16,10.45,42.11,42.11,0,0,0,9.41,2.19c1.56.14,3.3.21,4.72.25h31.84c34.18,0,66.93.91,53.54,1.62l-8.07.17-62,.65-9-.3-5.28-.16-1.53,0-2.13-.13a32.58,32.58,0,0,1-4.51-.56A43.56,43.56,0,0,1,66,496.5c-.08.14-2.57-2.37.21.92,4.8,5.37,7.22,6.7,4.71,5.08a43.08,43.08,0,0,1-6.33-6.07A44,44,0,0,1,56.13,480.65Zm368.28,24-6-.55-47.95,0c-22.24-.15-37,.12-55.06.26l-85.63.51-10.35.63c-1.33.12.23.28,3.08.39,8.82.33,25.13.62,27.17,1,4.2.7,28.09.48,44.38.6,13.83.1,21.73-.05,27.18-.37,5.69-.33,14.57-.66,24.84-.93,4.19-.11,19.3-.18,23.3-.11,13.31.25,26.65.28,39.38.24l9.42,0,4.6,0c1.55,0,2.87,0,4.91-.11a38,38,0,0,0,20-7,36.54,36.54,0,0,1-16.13,5.5A37,37,0,0,1,424.41,504.63Zm-200-149.42c-6.13-3.74-9.48-5.66-11-6.2-3.48-1.25-6.72-2.36-9.43-3.15-.45-.13,1.72,1.39,3.63,2.65,9.53,6.28,21,12.83,31.71,19.21,8.2,4.91,9.36,5.38,5.64,2.69-1.12-.81-.06-.39,0-.53l12.8,7.71,4.39,2.83,11.18-6.2,25.52-16.07c1.24-.78,2.6-1.68,3.08-2,4.89-3.77-8.44,3.16-21.85,11.22l-17.93,10.74ZM157,239.15c-1.62-2.67-3.17-5.3-4.63-8C153.83,233.88,155.3,236.58,157,239.15Zm80.62,37.51c-1.28-.54-3.87-1.39-7.57-2.51l-6.16-2.52-3.64-1.44-3.83-2c-22.85-11-43.15-31.55-53-55.94-1.12-3.27-2.44-6.54-3.53-9.9-.83-3.44-1.84-6.85-2.58-10.29l-.52-2.29a107.6,107.6,0,0,0,9.83,31.77A116.15,116.15,0,0,0,185.9,249l3.15,2.72-3.39-2.47a105.39,105.39,0,0,0,30.27,21.19c3.57,2,9.16,3.58,12.08,4.66C237.45,277.6,240.18,277.66,237.6,276.66Zm-29-265.61c.47-.21.92-.46,1.4-.67,1.23-.52,2.52-.9,3.76-1.38.24-.08.47-.2.7-.28l.95-.32A136.18,136.18,0,0,1,255.22.26c6-.55,12.91-.07,17.76.13A130.36,130.36,0,0,1,319.93,12.7a127.36,127.36,0,0,1,35.87,25.37c1.89,1.64,3.77,4,6,6.51A82.63,82.63,0,0,1,368.75,53a135.91,135.91,0,0,1,12.43,19.54l-.47-1.39c2.25,4.33,4,6.38,7,13.52a120.35,120.35,0,0,1,9.39,46.45c.07,11,0,26.64-.36,42.92-.18-1.49-.34-3-.67-4.52-.11,5.7-.52,11-.75,15-.55,4.07-1.14,7.23-1.56,9.67-.76,4.9-1.64,6.79-1.85,7.21-.53.81.45-4.48.1-5.54a128.88,128.88,0,0,1-18.93,47.66,137.16,137.16,0,0,1-25.7,29,150.43,150.43,0,0,1-17,11.87c0,.94,0,1.75.07,2.23.27,4.7.59,8.77.93,11.37a78.6,78.6,0,0,1,.39,9.8,168,168,0,0,1,87.76,54.43l-1.66-1.69c3.73,4,6.55,8.76,10,13.12a167.84,167.84,0,0,1,23.72,50.56c1,4.56,2.62,9,3.2,13.66l2.07,13.88.71,14A32.43,32.43,0,0,1,455.42,480a31.8,31.8,0,0,1-27.29,20c-3.7.26-4.39.2-3.38.41,3.9.62-17.42.69-32.25.85l-123.29.87L168,502.56l-21.48,0-43.8-.15a50.08,50.08,0,0,1-11.79-.94,34.16,34.16,0,0,1-11.41-5,34.65,34.65,0,0,1-14.23-20.49,31.2,31.2,0,0,1-.81-9.4c.24-3.22.46-6.23.55-7.39.45-4.39.75-5.31,1.17-8l1.51-9.66a82.32,82.32,0,0,1,2.25-11.37,50.14,50.14,0,0,0-1.23,6.67c.61-4.3,2-8.29,2.85-12.25L73,418.88l2-5.5c1.33-3.6,2.52-7.17,3.91-10.6l4.75-9.89a73.1,73.1,0,0,1,5.26-9.43c1.93-3,3.69-6.21,5.8-9.21,4.48-5.79,8.72-12,14.34-17.65l1.55-2.25c3.19-3.8,7-7,11.17-10.8,4-4,9.22-7.48,15.22-12l-6.13,4.73c.57,0,3.83-2.11.53.61a185.28,185.28,0,0,0-19,17.42l-7.54,8.37a50.45,50.45,0,0,0-3.4,4.85c-.55.9-2.77,4-5.45,7.74-2.48,3.86-5.08,8.56-7.2,12.12C79.84,405.64,83.6,400,83.4,401.31c0,.47.62-.44,1.08-.82l2.27-4.56a75.52,75.52,0,0,1,5.68-10.09,99.73,99.73,0,0,0-6.56,12.69l-2.76,5.9c-.87,2-1.5,4.14-2.31,6.34l.25-1.62c-1.42,4-3.79,10-4.17,11.64-3.24,12.9-5.62,27.26-5.43,37.23-.06,6.64.45,2.73,1.11-5.56l2.51-14.84c1.14-5.49,2.93-11.2,4.24-16.59,8.67-26.65,24-52,45.42-70.92,2.2-1.93,4.25-4,6.57-5.82l7.1-5.29c4.6-3.78,10-6.5,15.26-9.77a156.14,156.14,0,0,0-43.51,36.32l.14.06c4.37-4.54,8.27-9.56,13.12-13.57l6.46-5.87c2.05-1.8,4.21-3.19,6.12-4.65,3.9-2.83,7.23-5.44,10.71-7.17,6.15-3.49,16.1-9.69,31.1-15l7-2.6,7.69-2c2-.52,4.12-1.07,6.19-1.58,0-2.37,0-5,0-8.08.07,1.93.11,3.06.12,3.49.32-.21.61-2,.81,0,.07.7.14,2.36.19,4.33l.56-.14,5.18-.8c0-4.54.06-9.11.09-13.92l.12,13.89.32,0c0-3.89.1-7,.32-9.78.14-1.76.21-4.17.24-7.1a193.35,193.35,0,0,0-29.36,6.51,43.13,43.13,0,0,1,5.53-2.14,41.45,41.45,0,0,0-5.65,1.81,188,188,0,0,0-43.85,20.32c-13.38,9.09-26,19.44-36.75,31.72l2.19-2.68a174.7,174.7,0,0,1,22.48-21.42c24.27-19.61,54.89-32.13,85.42-36.31,0-.09,0-.18,0-.27-.87-.34-1.63-.67-2.22-1-1.89-.72,1.71,1.25.63.93a38.18,38.18,0,0,1-7.91-3.21c-5.54-3.4-9.95-5.41-14.5-8.9-2.3-1.71-4.93-3.39-7.69-5.81s-5.93-5.25-9.42-9l-6.49-7.18a131.38,131.38,0,0,1-24.49-42.75,91.26,91.26,0,0,1-3.45-11.78c-.48-2-1.05-4-1.43-6l-.91-6.09-.88-6.1c0-.36,0-.72-.06-1.07l-.17.12a6.61,6.61,0,0,1-.71.44v-2.62l0-7c0-9.38,0-18.79-.06-28.1,0-4.61-.07-9.45.06-13.79l.46-8.52c.09-5.09,1.34-9.94,2.06-14.64a34.83,34.83,0,0,1,1.52-6.1c.08-.28.12-.56.21-.84a129.91,129.91,0,0,1,14.44-36.3c-.91,1.4-1.81,2.81-2.62,4.28l-3.95,7.65.9-2.27a132.16,132.16,0,0,1,10.92-19C165.24,37.41,185.92,20.33,208.56,11.05Zm.19,14.2-5,2.48-8.59,5.33A146.94,146.94,0,0,1,213,23.53c4-1.93,8-3.18,11.81-4.73,3.88-1.31,7.8-2.23,11.77-3.38-9.41,1.56-30,7.91-46.19,20.87a78.26,78.26,0,0,1,9.11-6.05l4.34-2.65,4.47-2.18Zm21.44,5c-1.15.47-2.41,1-3.6,1.58,3-.85,3.61-.81.55.59-.55.25-1.73.72-3.06,1.24,0,0,0,0-.08.09a30.74,30.74,0,0,1-5,2.63C211.43,40.18,208,42.18,197,49.81A36.82,36.82,0,0,0,192,53.75a108.86,108.86,0,0,0-20.78,24.54c-1.39,2.14-2.69,4.35-3.9,6.6-1,2.08-2.5,5.33-4.62,10.12-3.89,9.28-5.9,19.53-7.13,29.59-.2,2.72-.31,5.66-.4,8.67l.33-.28L178,117.86,213.5,94.19c4.86,3.07,9.81,6.22,14.65,9l7.27,4.06q7.35,4,14.89,7.65c3.82,1.84,8.3,3.9,11.47,5.23,19.59,8.45,45.57,16.68,61.6,19.34A119.76,119.76,0,0,0,352,141.15l-1-.11c3.16-.47,4.79-1,9.58-1.8,2.36-.49,4.72-1,7.06-1.66l1.51-.48s0,0,0-.05l.06-.79.08-.82a8.06,8.06,0,0,0,0-2,112.41,112.41,0,0,0-4.29-30.34l1.53,2.79c-4.55-15.48-7.46-19.55-7.2-20.33,0-.7,1.94,2.39,2.56,2.85a106.8,106.8,0,0,0-19.83-28.88C330.35,46.47,314,36.82,299.78,31.23c-3.09-1.51-11.5-3.6-16.85-4.74-5.44-.88-9.93-1.91-15-2.07a60.47,60.47,0,0,1,8.89.34c-10.44-1.52-16-1.73-6-1.93,2.3,0-.28-.37.23-.52l.15,0c-1.15-.12-2.39-.23-3.76-.33a89.79,89.79,0,0,0-12.63-.37c-.77,0-1.36,0-1.84,0a59.13,59.13,0,0,0-7.81,1.91c-.15.1,3.58-.65,7-.78-10.46,1.42-13,2.16-15,3.06-1,.41-1.91.8-3.58,1.36s-4.17,1.13-8.1,2.81a55.75,55.75,0,0,1,8.38-2.37,74,74,0,0,1,7.63-1.63c-5.27,1.3-11.34,3.33-8.21,2.91C234.52,28.67,232.7,29.35,230.19,30.2ZM381.72,146.33l-.47.2-1.38.55a71.44,71.44,0,0,1-11.65,3.71,76.06,76.06,0,0,1-8.42,1.43c-17.6,2.52-35.64.53-53-3.42A286.47,286.47,0,0,1,256,131.52l-4-1.75a1.4,1.4,0,0,0,.35.28c26,11.78,53.47,21.26,82,23.47a118.94,118.94,0,0,0,26.21-.94,108.62,108.62,0,0,0,16.66-3.93c2.85-1,3.72-1.08,3-.37.46-.23,1-.41,1.48-.6Zm-12.56-9.2s0,0,0,0h0Zm-160-24.55-10.73,7.34,14.06-9.2c.45-.25.89-.74,1.26-.74,3,1.79,5.92,3.46,8.7,5l8.19,4.29c-3.57-2.12-9.27-5.26-16.9-10-3.07,1.83-6.6,4.39-9.74,6.5l-9.6,6.66,14.4-9.65Zm-65.4,57.93,10.46-6.92c-.34-2.39-.67-5-1-7.8l-7.61,5.07-1.85,1.2Q143.75,166.3,143.81,170.5Zm50.3-123.09c-14.44,10.76-25.66,25.53-33.3,41.78l-1,2.49c1.17-2.11,2.28-3.87,3.49-6.37a122.29,122.29,0,0,1,13.29-20.69c3.39-3.55,6.26-7.53,10.07-10.66a76.1,76.1,0,0,1,6.7-5.71ZM153.69,91c-.21.51-.45,1-.65,1.52L150.6,99c-.91,2.39-1.4,4.74-1.74,5.6-1.09,3.32-1.53,4-2.34,6-.48,2.33-.81,4.92-1.28,7.73l-.71,4.41-.28,4.84c0-1.51-.06-2.77.1-5.46-.82,10.73-.62,20.57-.56,30,.24,1.41.5-1.27.72-5.31.09-2.27.2-5.12.31-8.15,0-1.45.07-2.95.1-4.44l.32-5.17c.23-9.57,2.35-19.07,4.87-28.4C151.21,97.39,152.42,94.18,153.69,91Zm6-12.63c.78-1.39,1.54-2.8,2.41-4.15l1.53-2.49C162.23,73.9,160.91,76.1,159.67,78.38Zm-3.36,6.56c.27-.59.56-1.18.84-1.76C156.87,83.76,156.59,84.34,156.31,84.93Zm9.14-16.13,3.36-4.47a51.67,51.67,0,0,1,3.32-4.21c-.37.44-.78.84-1.15,1.28C169,63.78,167.2,66.25,165.45,68.8ZM137.11,173.42c0,.48.06,1,.07,1.44L142,171.7c-.1-1.92-.16-3.8-.16-5.45,0-1-.05-2-.08-2.87l-2.17,1.41c0,1.26,0,2.6-.07,4.11l-.06-4-1.59,1c-.24.13-.56.4-.72.4,0-.32,0-.62,0-.91l.09-2.64c.22-4.09.48-5.24.76-7.8,0-4.85.07-10.61.12-17.46l.24,5.35c0-3.45-.13-6.84.05-10l.36-8.28c.33-5.28,1.31-10.28,2.1-15.21q.84-3.38,1.77-6.74c.56-3.16-.54,0-2.35,6.24-.87,3.55-1.54,8.16-2.41,13-.35,4.91-.77,10.27-.84,15.06C137.06,149,136.9,161.07,137.11,173.42Zm30.31,88.73a130.73,130.73,0,0,1-34.28-68.46l-.74-3.8c.49,3.41.39,6.47,1.47,10.38,2.44,11.45,7,22.8,12.45,33.37A145.26,145.26,0,0,0,158,251.31a106.34,106.34,0,0,0,8.17,9.77Zm120.46,86.51-7.22,4.51,9.5-5.53,11.43-7.34c-4.64,2.42-14.35,8.29-23.72,14.37l9.76-5.9Zm-25.71,21.15-10.07-6.1-8.28-4.89c-1.57-.91-5.23-3.29-6.06-3.93a21.32,21.32,0,0,1-2.7-2.51l-8.19-5,2.74,1.37L211.52,338l-12.57-7.72.1-8c-4.41,1.09-9.56,2.52-16.45,4.55l-1.89.68c-.87.37-1.86.79-3.07,1.27-2.34,1-4.73,2-7.08,3.08-1.18.56-2.39,1.06-3.55,1.67l-.44.22s0,0,0,0a.28.28,0,0,1-.1,0c.33-.2.66-.43,1-.64-1.8.89-3.63,1.74-5.39,2.69A26.67,26.67,0,0,0,166.2,334v0l3.64,7.16,8.54,16.66-2.3-2.67c16.37,31.54,9,19.21,7.64,18.25L201.6,407.1c8.79,16.84,18.23,34.68,25.48,49.57l8.76,16.82,5.5,11.09h2.16c11.17-.15,23.47-.22,35.84-.24l1.24-2.57c1.76-3.6,3.91-7.77,7.38-13.88l3.28-6.21c11.07-21.68,21.91-42.17,33.36-63.47l23-43.64,6.71-12.91,3.33-6.44c.78-1.51.61-1.19.64-1.26l0-.12c.09-.16.09-.28-.14-.32-.05,0-.19-.08-.16-.05L352.67,331a148.58,148.58,0,0,0-21-7.32c0,4-.09,7.76-.22,10.05a24.16,24.16,0,0,1-2.91,1.4c-.79.28-3.77,1.88-7.18,3.74l-4,2.1-3.14,1.6c-1.17.58-1.87.81-1.41.39,1-.89,2.88-2.3,3.74-3l12.44-7.63L329,323c-.86-.22-1.71-.47-2.57-.67,0,2.82,0,5.66.07,8.59l-18.8,11.46-16.51,10.21-8.42,5.1Zm64-63.12c.62,0,.65-.07,0-.34Q326.15,306.51,326.15,306.68Zm2.66,3.75-2.61-.57q0,2.84.09,5.69c.84.17,1.68.35,2.59.55C328.86,314.19,328.84,312.31,328.82,310.43ZM382.55,346l.2-.35-.38-.3-.57,1.09C382,346.31,381.19,348.31,382.55,346ZM349.7,408.73c1.23-3.9,2.89-8.61,4.74-13.68.8-2.18,3.37-7.27,8.33-16.63l18.1-34.25c-1.95-1.42-3.93-2.73-5.9-4L369.32,351c-1.22,2.38-4.35,8-5.16,9.32a44.69,44.69,0,0,1-3.14,4.36l-6.69,12.52,1.88-4.11-14.26,27.56L328,426.73l-.51,1.77L316.67,449l2.28-4.61c-.43.12-1.88,2.28-.73-.35.91-2.08,4.87-9.89,7.75-15.43,3.09-5.95,4.42-8.48,5.08-10.32.48-1.34,4.45-9.24,6.89-14.26,6-12.31,3.41-8.58,3.36-9.58,0-.35-.53.22-.92.43l-5.48,10,8.43-16.83-.22,1.12,3.91-7.48,11-23.39c3.74-8.33-6.07,8.95-13.27,22.55l-27.44,52.27L305.68,455l18.14-35.11-.14,0-6.15,11.6c-4,7.64-7,13.28-9.75,17.91-2.52,4.25-6.32,11.42-11.42,21.27l-7.1,13.68c6.45,0,12.83,0,19,.08l1.44-2.72-1,2.72h.09l1.26-2.57,29.83-53-.84,2L330,448l-19.24,36.45c12,.09,23.23.23,32.37.43l46.26.35-1.56-.19c5.26-.24,8-.6,16.33-.68l12.52-.08h6.36c1,0,2.36,0,3,0s1.15,0,1.71-.11a17,17,0,0,0,11.55-6.75,16.35,16.35,0,0,0,2.42-5,12.89,12.89,0,0,0,.55-3.23l.07-.87-.06-1.41-.14-3c-.26-4-.2-8.26-.69-12.5l-1.85-12.74,1.48,4.48c-.63-6-2.29-10.8-3.16-14.81l-1.33-5.34-1.41-4c-1.6-4.69-2.16-6.66-2.17-7.15,0-1,2.2,4,2.89,4.81a157.7,157.7,0,0,0-26-45.48,164.77,164.77,0,0,0-26.78-25.16l-4.48,8.76c-8.5,16.25-17.29,33.7-25.53,48.4C351.48,406,349.5,409.38,349.7,408.73ZM154.37,340.38l.08.15,7.49,14c11.57,22,22.1,41.41,32.55,60.55l12.19,23,19.12,36.11c2.15,4,3.95,7.46,5.52,10.46l6.94,0C236.51,482,233,476,225.47,461.7c-5.45-10.27-12.69-21.82-11.24-18,2.1,5.6-6.47-9.27-17-29.39l-17.57-33.5c-1.27-2.41-2.77-4.89-3.68-6.38-1.65-2.7-5.37-9.35-9.46-16.83l-6.19-11.47-3.74-7.12C155.87,339.5,155.11,339.92,154.37,340.38Zm86.17,144.2H241l-2.77-4.74C239.12,481.61,239.86,483.16,240.54,484.58Zm78.21-67,1.2-2.63c-1.31,2.22-2.54,4.08-3.95,6.74l-12.29,23.55-7.26,14L292,467.64l-.38,1.16Zm3.17-128.66-.44.2.09,25.56.29.14Zm-6.67,43.12c.12,0,.19,0,.29-.05l6.28-3.74q0-3.45,0-6.9l-.25,0,0,6.83-4.08,2.47ZM212,319.75l-.51.08,0,2.09.16.53a8,8,0,0,0,.37-1.56C212,320.52,212,320.13,212,319.75Zm-6.13,1,0,2.76.14-.05,0-2.74Zm20,18-20.33-12.26c0-1.88,0-3.78,0-5.67-1.78.35-3.61.75-5.6,1.24a41.55,41.55,0,0,0,.28,6.6,5.55,5.55,0,0,1,.07.81c1.67.81,6.51,3.56,9.36,5.1,8.16,4.42,5.83,2.38,6.59,2.24.27-.05-.07-.47-.15-.81l-6.49-4.16,11.11,6.27-.8-.1,4.91,2.94c5.46,2.85,11.4,6,15.58,8C246,351.72,234.83,344.22,225.91,338.8Zm-14-44.41-.2-.07L211.56,313c.12.65.28,1.29.44,1.94l0-11.68C212,300.29,211.94,297.35,211.92,294.39Zm0-2.27-1.91-.71c.63.28,1.17.47,1.78.72Zm-60.61,45.62h.47l5.14-3.15c3.06-2,6.49-3.28,9.74-5,2-.93,3.92-1.92,5.94-2.8l5.71-2,.38-.33A140.27,140.27,0,0,0,151.29,337.74Zm-39,34.32c2.21-2.81,4.69-4.76,7.42-7.89,3.86-4.64,8.68-8.49,13.16-12.71,2.19-2.19,4.87-3.79,7.27-5.72s4.84-3.84,7.46-5.43L151,338.2l-.11-.21c-2.14,1.31-4.27,2.62-6.37,4-5.36,4-10.93,7.82-15.73,12.54-5.19,4.3-9.56,9.41-14.12,14.35A24.43,24.43,0,0,0,112.24,372.07Zm89.07,125.35c-11.4-.31-36.18-.27-60.56.11l24.91,0,.58,0-18.58.15,24,.14Zm23.09-12.77,4,0c-2.62-4.73-4.15-7.15-3.62-5.35l-34.63-65.67L191,415l-5-9.86-33.37-63.72a161.05,161.05,0,0,0-19.79,14.8,145.15,145.15,0,0,0-30.75,37.2L100,396.73l-1.75,3.6-3.58,7.33c-2.35,5-4,10.4-6,15.67-1.35,5.5-3.05,11-4.08,16.58l-1.27,8.42a49.32,49.32,0,0,0-.87,8.37L82,466.57a18.29,18.29,0,0,0,.07,3.61,20.06,20.06,0,0,0,.61,2.88,16.92,16.92,0,0,0,7.08,9.11,16,16,0,0,0,5.38,2.18,18.73,18.73,0,0,0,2.92.31c.32,0,1.34,0,2.23,0h2.68l21.53,0Zm12.37,12.83h.42l-.1-.12h-.95A2.83,2.83,0,0,0,236.77,497.48ZM385.43,335.3a160.68,160.68,0,0,0-53.65-24.2l0,5.7c2,.5,4,1.06,6.3,1.74,1.49.06,1.17.07,1.92.61,1.61.51,3.23,1,5,1.64,7.88,2.46,15.9,6.38,21.64,8.72,5.51,2.76,8.57,4.31,6.22,2.53-3.44-2.53.15-.75,8.15,3.8,3.78,2.6,8.63,6,14,10.15,5,4.54,11,9.47,16.25,15.77a164,164,0,0,1,29,45.94c1.35,3.69,3,7.56,3.93,9.88,1,2.07,2.06,5.82,3.35,10.52l2.12,7.68,1.47,8.83c1.28,6.08,1.51,12.61,1.84,18.82a29.33,29.33,0,0,1-2.08,15.74,27,27,0,0,1-5.59,8,29.26,29.26,0,0,1-10.72,6.33,30.42,30.42,0,0,1-6.22,1.41c-2.43.26-6.36.23-11.18.36l7.78.34a31.22,31.22,0,0,0,7-.37,29.24,29.24,0,0,0,12-5.16,15.59,15.59,0,0,1,2.92-2,28.87,28.87,0,0,1-15.76,8.57c-5.91.92-12.49.34-18.72.5l-12.62-.15-157.21.24-4.94,0,0,.12,124.61.14,38.59-.07,25.51.14c4.48,0,5.5-.33,3.95.4A30,30,0,0,0,455,474.68a38.19,38.19,0,0,0,.39-11.44l-.66-11.82c-4.29-36.42-19.22-67.22-40.83-90.79L408,354.23c-2.14-2.22-4.65-4.27-7.06-6.52C396.22,343.06,390.56,339.16,385.43,335.3Zm-57-49.83c-.86.49-1.72,1-2.59,1.47q.15,9.58.3,19.35c.89.19,1.75.47,2.63.67,0-2.13,0-4.25-.07-6.35C328.62,295.4,328.49,290.73,328.43,285.47Zm58.05-118.69c0-4.13,0-8.41-.07-12.62l-2.6,1.05c0,1.83,0,3.64,0,5.47,1.74,30.8-6.35,58.71-21.77,81.17-5.07,7.7-13.64,16.79-21.93,23.94a123.77,123.77,0,0,1-45,23.57c-3.25.82-6.22,1.71-9,2.27l-7.67,1.17c-4.6.87-8.29.64-10.94.81-5.31.13-6.62,0-4.08-.52,3.7-.7,5.66-1.32,8.72-2.05a130,130,0,0,0,14.61-2.27c3.11-.94,4.28-1.45,2.68-1.3a119.5,119.5,0,0,0,72.35-50.72,16.12,16.12,0,0,1-1,1.66c2.41-3.77,4.93-7.45,7.07-11.45a119.36,119.36,0,0,0,13.22-43.64l.58-11.46,0-11.62V156c-1,.38-1.91.76-2.89,1.12l-4.29,1.34c-2.2.77-4.51,1.16-6.81,1.71a106.88,106.88,0,0,1-28.74,2c-2.93,0-13.73-1-16.71-1.38-7.32-.76-13.59-1.76-17.62-2.35a117,117,0,0,1-18.74-4.75c-11-3.42-26.7-9.62-29.12-11.47-1.2-.84-11.54-5.74-16.91-8.8-1.74-1-2.65-1.6-1.76-1.3l6.78,2.58a305.51,305.51,0,0,0,56.37,20.12,199.94,199.94,0,0,0,38.56,5.43c10.92.55,24.18-.83,34.27-4a69.46,69.46,0,0,0,7.62-1.83v-5.1c-.71.28-1.37.54-1.88.76-2.43,1-3,1.23-2.17,1.15s.43.14-.79.65-3.4,1.22-5.54,1.94a101.6,101.6,0,0,1-16,3c-27.56,3-56.93-4-84.12-14-10.26-3.82-20.63-8.27-30.66-13.17-5-2.43-10-5-14.8-7.56l-7-3.84-4.89-2.83a21.53,21.53,0,0,0-2.36,1.54l-11,7.39L175.44,141l-20.6,13.72c0,.56,0,1.16,0,1.71-.06,2.56-.15,5.35-.25,7L158.1,161l37.27-24.78,13.6-8.9,3.12-2a3.87,3.87,0,0,1,.66-.39l.3-.15a5.16,5.16,0,0,1,1-.4,3.48,3.48,0,0,1,1,1.26c.3.28.7.62.42.57a2.83,2.83,0,0,1-.65-.2c0,.07-.1.05-.16.07a1.36,1.36,0,0,1-.51-.11l-.13,0a4.54,4.54,0,0,0-.36.32l-.16.16-.08.07-.95.65-8.42,5.8-16.85,11.61-12,7.27-18.47,12.28c.06.15-2.66,2.18.66.11,10.91-6.83,8.42-4.88-13.56,9.71a137.11,137.11,0,0,0,2.27,22.13l.9,2c1.07,3.82,1.72,7.79,3.45,12l2.46,6.78c1,2.36,2.29,4.83,3.57,7.56l-2.81-5.55c-.13.46,1,3.41-.72.36a104.05,104.05,0,0,1-7-19.84,66.13,66.13,0,0,1-1.85-9c-.37-2.16-.65-3.6-1-4.76a42.17,42.17,0,0,1-.88-7.73c-.08-.91-.15-1.85-.21-2.81h0l-4.82,3.19a132.26,132.26,0,0,0,6,32.31c1.79,4.86,3.4,9.8,5.86,14.46.91,2.09,2,4.11,3.09,6.13a124.72,124.72,0,0,1-13.77-38.82l-.14.06.62,4.17,1,4.09,2.1,8.16A178.25,178.25,0,0,0,152.34,233a109.52,109.52,0,0,0,18.26,25.09c2.77,3.33,6.58,6.19,10.1,9.52,3.73,3.09,7.79,6,11.71,8.78,4.16,2.42,8,5.14,11.8,7s7.12,3.73,9.94,5c4.27,1.8.5.78.39,1,13.26,5.34,27.22,8.94,47.64,9.3l-12,.45c-3.88,0-7.71-.41-11.77-.64l9.8,1.63c-14.7-1.84-18.26-3.16-21.34-3.52-2.49-.35-4.63-.72-11.48-3.16,0,.07,0,.14,0,.21,2.18.83,4.26,1.6,6.22,2.37,3.55,1.29,7,2,10.82,3.11-3.81-.88-8-1.68-10.66-2.46s-3.79-1.05-1.72-.05c1.62.72-1,.06-4.64-1.07,0,4.6.07,9.18.1,13.7l0,9.77c0,2.31,0,1.72,0,1.82l-.05.14.06.11,0,.06s0,0,.08.07l1,.62c8.83,5.49,19,11.61,28.6,17.31l12,7.13L262,349l.21.06.14-.12.08-.07,2.45-1.48,39.25-23.52,3.92-2.36.75-.46,0,0,0-.06,0-.12-.08-.1,0,0,0-2.69c0-3.66,0-7.34,0-10.93,0-4.52.14-8.7.26-12.6a125.51,125.51,0,0,1-16.67,5.07c-3.87,1.12-7.56,1.37-11.09,1.91l-5.28.69-5.35.21a87.51,87.51,0,0,0,12.67-1.87,76.67,76.67,0,0,1-15.37,1c-2.08-.11-.5-.42,6.48-1.07,3.19-.34-.46-.3.21-.54.89-.21,2.85-.86,8.21-1.85a82.4,82.4,0,0,0,10.74-2.47c2.27-.66,4.86-1.23,7.68-2.17l9.29-3.46c14.28-5.68,28.06-17.13,23.39-14.44-3.33,1.92-.53-.44,5.83-5.58,3.29-2.44,6.88-6.3,11.31-10.36a155.84,155.84,0,0,0,12.82-15.44,123.26,123.26,0,0,0,20-43.71,49.18,49.18,0,0,0,1.53-9.27A170.44,170.44,0,0,0,386.48,166.78Zm-5.27-67.64c.8,4.4,2,8.72,2.42,13s1,8.32,1,12a11.76,11.76,0,0,1-.13,2.09c0,.81.16,1.61.19,2.42.18,3.38.41,6.9.31,10.5s0,6.5-.07,8.86c-.42.2-.77.33-1.17.5,0,1.78,0,3.55,0,5.35.62-.19,1.2-.34,1.84-.55l.77-.24c0-6.18-.07-12.14-.1-17-.1-3.36-.23-7.65-.28-9.32a66.36,66.36,0,0,0-1-12C384.66,111.25,383.58,107.21,381.22,99.14ZM265.76,12.83a2.05,2.05,0,0,0,.53.13c2.31.07,4.61.22,6.9.43,4,.27,7.32,1,9.55,1.07l.7.06c-1.35-.2-2.71-.38-4.05-.6a54.19,54.19,0,0,0-8.24-.88ZM251,18.11a116.25,116.25,0,0,0-38.77,11,136.66,136.66,0,0,0-15.12,8.49,130.48,130.48,0,0,0-22.35,19.56c.69-.75,1.36-1.5,2.08-2.25a112.2,112.2,0,0,0-21.2,32.18l.14,0c1.94-3.81,3.59-7.79,6-11.34a89.91,89.91,0,0,1,11.72-16Q176,57.26,180,52.92c3-2.53,6.21-6,10.51-9.2,10-8.38,26.19-16.75,35.32-18.72,3.33-1,.7.34.79.6,10.14-3,20.38-5.48,35.55-5.67-.81.15-1.57.27-2.35.41l.7-.09a120.63,120.63,0,0,1,34.55,4.51,134.36,134.36,0,0,1,20.14,8.08c2.15.76,3.06,1,1.85.11-2.43-1.55.27-.88,5.68,2.27l4.63,2.61,5.24,3.73c3.88,2.54,7.64,6.19,11.78,9.92a125.13,125.13,0,0,1,21.9,29.79c1.16,2.41,2.56,4.89,3.41,6.39a52,52,0,0,1,3,6.89l2,5,1.66,5.87c.53,2,1.19,4.11,1.64,6.23l1,6.37a71.34,71.34,0,0,1,1.09,11.57c.12,2.64.27,6.08.14,7-.24,3.75-.36,5.46-.36,7.71-.44.8-1.88.95-3.15,1.65a57.35,57.35,0,0,1-6,2.21l4.45-1,4.21-1.29,1.06-.33c.16-.07.4-.08.48-.2l0-.52.16-2.07.33-4a8.43,8.43,0,0,1,.17-1.22V137c0-4.1-.39-8.27-.51-12.13-1.57-15.7-3.5-19.92-3.25-18.18s-1-1.8-2.43-7.08c-2-5.12-4.44-12.1-7.41-17.42A121.35,121.35,0,0,0,337.31,44,119.56,119.56,0,0,0,251,18.11Zm-.2,390.69c-.73-1-1.82-1.38-2-3.89l-.22-1.13a11.32,11.32,0,0,1,1.81-9.29,21,21,0,0,1,3.25-3.57,13.72,13.72,0,0,1,8-3.28,13.52,13.52,0,0,1,8.11,2.24,9.82,9.82,0,0,0,.94.58c1.8.65,4.44,4.18,4.58,7.2a18.32,18.32,0,0,1,.15,4.89l.2-.14a3.26,3.26,0,0,1,.47,1.71,6.6,6.6,0,0,1-1.59,4c-.63.68-1.16,1.46-2.08,2.31l-.4-.76c-2.52,2.43-2.22.74-2.49.13a9.44,9.44,0,0,1-3.66,2.35c-2.36.85-5.33.73-6.76-.28-.34-.21-1.21-.4-1.62-.68a3.77,3.77,0,0,1-.89-.9l.8,0c-.54-.68-.5-1.18.28-1.33l.29-.45c.35-.37.67-.64,2-.27.78.21,1.89-.75,1.64-1.29-.2-.79.72-1.25,1.73-1.51a3.21,3.21,0,0,0,1.42-.76c.07-.07,0-.27,0-.39-.09-.49-.13-1.08.06-1.25a.29.29,0,0,1,.19-.08c.52,0,.55,0,.27-.53a3.25,3.25,0,0,1-1.39-.06l-.52-.22.1-.27s.17,0,.17-.08a1.2,1.2,0,0,0-.68-1.15l-.06,0-.06.09a1.25,1.25,0,0,1,.25.7c0,.09.07.17.06.26s-.2.12-.9-.15a1,1,0,0,1,.3.19.73.73,0,0,1,.1.12,1.37,1.37,0,0,1-.06.89c-.07.15-.25.15-.38.18a3.4,3.4,0,0,1-.62.05c-.32,0-.21-.25.21-.8l.42-.62h0l-.56-.39-.51-.34-.25,0a2.32,2.32,0,0,1-.17-.36l.25.2s.08,0,.05-.07a3.44,3.44,0,0,1-.47-1.11c-.11-.61-1.06-.76-1.4-.43a3,3,0,0,0-.84,1.55l-.23,1.07a4.7,4.7,0,0,1,.09-1.71l-.13-.05a1.9,1.9,0,0,0-.24.49,1.7,1.7,0,0,1-.47,1c-.27.25-.32.78-.12,1.43.24.84,1,1.5.8,2.2l-.63.55a6.26,6.26,0,0,0,1.27,1.18,7.6,7.6,0,0,1-2,1.09l.25.39c-1.16-.78-1.26.42-2.51-.55a12.71,12.71,0,0,0,.78,1.34c-.52-.1-1.11-.47-1.24.08s-1.16-.08-1.77-.22l-.41.4Zm11.48-8.27h.18v0l-.14.13c.06.09.05.2.08.16a3.31,3.31,0,0,1,.29-.33C262.77,400.22,262.48,400.16,262.26,400.53Zm-10.47.22a11.85,11.85,0,0,0,.12,1.89l.1,1.17.23.1a9.9,9.9,0,0,1,.72-6.13l-.05-.28c-.2.15-.49.25-.6.51A8.52,8.52,0,0,0,251.79,400.76Zm10.39.72h0Zm0,0h0Zm13.89,37c.5,1.85-.9,6-3.3,7.87a18.34,18.34,0,0,1-3.93,2.91l.23.08c-.34.47-.42.94-1.14,1.36a6.6,6.6,0,0,1-4.15,1c-.92-.13-1.86-.12-3.08-.39l.4-.77c-3.43-.67-1.87-1.4-1.53-2a9.42,9.42,0,0,1-4-1.66c-2-1.45-3.64-4-3.64-5.71,0-.39-.37-1.22-.37-1.72a3.76,3.76,0,0,1,.23-1.24l.49.62c.25-.83.68-1.08,1.25-.53l.53,0c.51.07.91.18,1.36,1.48.27.76,1.7,1.12,2,.61.53-.62,1.44-.12,2.23.56a3.21,3.21,0,0,0,1.43.73c.1,0,.24-.13.32-.23.35-.35.81-.73,1.06-.67a.3.3,0,0,1,.18.11c.29.43.34.43.59-.08a3.25,3.25,0,0,1-.74-1.18l-.11-.56.27-.07s.13.12.17.09a1.2,1.2,0,0,0,.56-1.22l-.06,0h-.11a1.25,1.25,0,0,1-.43.61c-.07,0-.11.15-.18.2s-.22-.1-.39-.82a1,1,0,0,1,0,.35.72.72,0,0,1,0,.15,1.38,1.38,0,0,1-.76.46c-.17,0-.26-.12-.36-.21a3.41,3.41,0,0,1-.39-.48c-.19-.26.09-.31.78-.28h.75c0-.19,0-.45,0-.68s0-.36,0-.62l-.11-.23a2.32,2.32,0,0,1,.19-.34l0,.32s.07,0,.09,0a3.42,3.42,0,0,1,.64-1c.44-.43,0-1.3-.44-1.39a3,3,0,0,0-1.75.2l-1,.42a4.68,4.68,0,0,1,1.45-.9l0-.14a1.92,1.92,0,0,0-.54.09,1.71,1.71,0,0,1-1.05.15c-.36-.08-.82.18-1.24.72s-.68,1.66-1.35,1.91l-.81-.2a6.24,6.24,0,0,0-.25,1.72,7.56,7.56,0,0,1-2-1l-.18.43c0-1.4-1.06-.8-1-2.38a13,13,0,0,0-.65,1.4c-.22-.49-.25-1.18-.77-1s-.6-1-.83-1.58l-.56-.1-.3-1c.44-1.2.09-2.28,2-3.88l.81-.82a11.32,11.32,0,0,1,8.67-3.82,21.08,21.08,0,0,1,4.79.63,13.71,13.71,0,0,1,7.27,4.71A13.52,13.52,0,0,1,276,437.4,10.12,10.12,0,0,0,276.07,438.51ZM260.16,428c-.24-.08-.48-.26-.76-.2a8.48,8.48,0,0,0-2.56,1.14,11.63,11.63,0,0,0-1.48,1.18l-.9.75.05.24a9.9,9.9,0,0,1,5.45-2.91Zm2.84,9.41.11.14,0,0-.19,0c0,.1-.13.16-.09.16a3.4,3.4,0,0,1,.44,0C263.55,437.6,263.44,437.33,263,437.36Zm-.82.47h0Zm0,0h0Zm0,0h0Zm0,0h0Z"/></svg>