<svg id="Layer_1" data-name="Layer 1" xmlns="http://www.w3.org/2000/svg" viewBox="0 0 512 512"><defs><style>.cls-1{fill:#141f38;}</style></defs><title>man-3-outline</title><path class="cls-1" d="M268.8,396.8h0a12.9,12.9,0,0,1-.1,1.5,12.48,12.48,0,0,1-1.45,4.6q-.3.54-.64,1.06a12.86,12.86,0,0,1-3.21,3.27,12.78,12.78,0,0,1-15.55-.55q-.47-.39-.91-.83a12.85,12.85,0,0,1-1.56-1.89q-.34-.51-.64-1.06a12.74,12.74,0,0,1-1.54-6.1h0a12.8,12.8,0,0,1,25.6,0ZM256,422.4a12.8,12.8,0,0,0-12.8,12.8h0a12.81,12.81,0,0,0,23.41,7.16q.34-.51.64-1.06a12.48,12.48,0,0,0,1.45-4.6,12.9,12.9,0,0,0,.1-1.5h0A12.8,12.8,0,0,0,256,422.4ZM460.8,480a32,32,0,0,1-32,32H83.2a32,32,0,0,1-32-32,172.68,172.68,0,0,1,83.67-148h0l.56-.33q1.47-.88,3-1.73l1.06-.6q1.37-.77,2.75-1.51l1.13-.6q1.42-.75,2.87-1.48l1-.5q1.76-.88,3.55-1.71l.33-.16q2-1,4.12-1.86l.12-.05q1.93-.84,3.88-1.62l.91-.36q1.59-.63,3.19-1.24l1.07-.4q1.57-.58,3.16-1.13l1-.35q1.73-.59,3.49-1.14l.69-.22q4.34-1.35,8.78-2.47l.1,0q2.1-.53,4.22-1l.79-.17q1.8-.4,3.62-.76l1-.19.78-.15V277.27A128,128,0,0,1,128,166.4V128a128,128,0,0,1,256,0v38.4a128,128,0,0,1-64,110.87v32.91l.78.15,1,.19q1.81.36,3.62.76l.79.17q2.12.48,4.22,1l.1,0q4.44,1.12,8.78,2.47l.69.22q1.75.55,3.49,1.14l1,.35q1.59.55,3.16,1.13l1.07.4q1.6.6,3.19,1.24l.91.36q2,.79,3.88,1.62l.12.05q2.08.9,4.12,1.86l.33.16q1.78.84,3.55,1.71l1,.5q1.44.73,2.87,1.48l1.13.6q1.38.74,2.75,1.51l1.06.6q1.49.85,3,1.73l.56.33h0A172.68,172.68,0,0,1,460.8,480ZM256,25.6c-1.36,0-2.72,0-4.07.09l-.68,0q-1.94.09-3.85.25l-.74.07c-1.3.12-2.59.25-3.87.42l-.39.06q-1.86.25-3.69.56l-.52.09c-1.25.22-2.49.47-3.73.73l-.74.16q-1.84.41-3.65.88l-.59.16q-1.79.48-3.55,1l-.26.08c-1.21.38-2.41.78-3.6,1.2l-.69.24q-1.73.62-3.43,1.3l-.67.27c-1.16.48-2.32,1-3.46,1.48l-.24.11q-1.65.75-3.27,1.57l-.57.28q-1.62.82-3.21,1.71l-.68.38q-1.59.9-3.14,1.84l-.47.29q-1.48.92-2.93,1.88l-.39.26c-1,.68-2,1.38-3,2.1l-.63.46q-1.44,1.06-2.85,2.18l-.55.44q-1.42,1.14-2.8,2.33l-.13.11c-.93.81-1.84,1.63-2.74,2.47l-.53.49q-1.3,1.23-2.55,2.5l-.54.56c-.85.87-1.68,1.75-2.49,2.65l-.3.33q-1.16,1.29-2.27,2.62l-.38.45q-1.15,1.39-2.25,2.82l-.48.63q-1.09,1.43-2.13,2.9l-.36.52q-1,1.45-2,2.93l-.18.28c-.67,1-1.31,2.09-1.94,3.15l-.38.64q-.91,1.56-1.76,3.15l-.34.64c-.58,1.1-1.15,2.21-1.69,3.34l-.1.22q-.78,1.64-1.51,3.31l-.26.59q-.72,1.68-1.38,3.4l-.27.71c-.44,1.16-.86,2.33-1.26,3.51l-.16.48q-.57,1.72-1.08,3.46l-.13.42c-.35,1.21-.67,2.43-1,3.66l-.09.39L190.6,81.1l13.9-9.26,14.08,9c.65.41,67.56,42.52,123.87,42.52a91.13,91.13,0,0,0,15.78-1.3q0-.53-.07-1.06c0-.37,0-.75-.08-1.12s-.08-1-.13-1.46-.06-.72-.1-1.07-.11-1-.17-1.51c0-.34-.08-.68-.12-1-.07-.53-.15-1.06-.22-1.58,0-.31-.08-.61-.13-.92-.09-.57-.19-1.14-.29-1.72,0-.25-.08-.51-.13-.77-.12-.65-.25-1.31-.38-2,0-.17-.06-.34-.1-.51q-.76-3.72-1.79-7.33l-.09-.29q-.3-1.05-.62-2.09l-.17-.54c-.19-.61-.39-1.21-.59-1.82l-.23-.66c-.19-.56-.39-1.12-.59-1.67l-.27-.72c-.2-.53-.4-1.06-.6-1.59l-.3-.75c-.21-.51-.41-1-.63-1.53l-.33-.76c-.21-.5-.43-1-.65-1.49l-.36-.78c-.22-.48-.45-1-.68-1.45l-.38-.79c-.23-.47-.46-.94-.7-1.41l-.41-.78-.73-1.38-.42-.78L345,77.4l-.45-.77-.79-1.33-.47-.76-.82-1.31-.48-.75-.85-1.29-.5-.73-.88-1.28-.51-.72-.92-1.26-.52-.69-1-1.25-.52-.67-1-1.23-.53-.65-1-1.23-.53-.62-1.09-1.23-.52-.58-1.15-1.23-.51-.54L328.76,56l-.47-.48L327,54.25l-.41-.4q-.72-.69-1.46-1.36l-.32-.29q-.84-.77-1.71-1.51l-.1-.09q-3.7-3.2-7.7-6.05l-.36-.25-1.63-1.13-.53-.35-1.49-1-.64-.41-1.41-.88-.72-.43-1.36-.81-.78-.44L305,38.1l-.83-.44-1.32-.7-.87-.44-1.3-.65-.91-.44-1.29-.6-.95-.43-1.29-.57-1-.41L294,32.9l-1-.39-1.3-.49-1-.37-1.31-.46-1-.35L287,30.4l-1.06-.33-1.31-.39-1.07-.31L282.24,29l-1.08-.28-1.33-.33-1.1-.26-1.34-.29-1.11-.23-1.35-.26-1.12-.21-1.36-.23-1.13-.18-1.39-.19-1.12-.15-1.42-.16-1.11-.12L264.82,26l-1.09-.09-1.53-.1-1-.06-1.7-.07-.87,0Q257.3,25.6,256,25.6Zm0,243.2A102.52,102.52,0,0,0,358.4,166.4V147.92a120.46,120.46,0,0,1-16,1c-64.74,0-137.64-46.54-137.64-46.54l-51.2,34.13V166.4A102.52,102.52,0,0,0,256,268.8Zm-38.4,19.74v29.77l38.4,23,38.4-23V288.54a128.66,128.66,0,0,1-76.8,0ZM215.77,486.4l-69-131.68A147.23,147.23,0,0,0,76.8,480a6.41,6.41,0,0,0,6.4,6.4Zm51.56,0,75-143.19A145.93,145.93,0,0,0,326.74,338l-.11,0q-1.53-.42-3.07-.8L323,337q-1.37-.34-2.76-.64l-.66-.15q-1.47-.32-3-.62l-.39-.08-.63-.12L256,371.2l-59.64-35.78-.63.12-.38.08q-1.48.29-3,.62l-.66.15q-1.39.31-2.76.65l-.52.13q-1.54.38-3.08.8l-.1,0a146,146,0,0,0-15.6,5.23l75,143.19ZM435.2,480a147.23,147.23,0,0,0-70-125.28l-69,131.68H428.8A6.41,6.41,0,0,0,435.2,480Z"/></svg>