<svg id="Layer_1" data-name="Layer 1" xmlns="http://www.w3.org/2000/svg" viewBox="0 0 512 512"><defs><style>.cls-1{fill:#141f38;}</style></defs><title>document-exclamation-mark-outline</title><path class="cls-1" d="M115.2,256A12.8,12.8,0,0,1,128,243.2h76.8a12.8,12.8,0,0,1,0,25.6H128A12.8,12.8,0,0,1,115.2,256Zm166.4,38.4H128a12.8,12.8,0,0,0,0,25.6H281.6a12.8,12.8,0,0,0,0-25.6Zm-.38,51.2H128a12.8,12.8,0,0,0,0,25.6H281.22a12.8,12.8,0,0,0,0-25.6Zm218,76.8a89.52,89.52,0,0,1-117.47,85.13A63.38,63.38,0,0,1,358.4,512H76.8a64,64,0,0,1-64-64V64a64,64,0,0,1,64-64H268.94L422.4,153.6V333.82A89.54,89.54,0,0,1,499.2,422.4ZM281.6,49.08V102.4A38.44,38.44,0,0,0,320,140.8h53.09ZM347,486.4A89.48,89.48,0,0,1,396.8,333.82V166.4H320a64,64,0,0,1-64-64V25.6H76.8A38.44,38.44,0,0,0,38.4,64V448a38.44,38.44,0,0,0,38.4,38.4Zm126.65-64a64,64,0,1,0-64,64A64.07,64.07,0,0,0,473.6,422.4Zm-64-38.4a12.8,12.8,0,0,0-12.8,12.8v12.8a12.8,12.8,0,1,0,25.6,0V396.8A12.8,12.8,0,0,0,409.6,384Zm11.84,59.07a14.87,14.87,0,0,0-1.21-2.18,9.2,9.2,0,0,0-1.6-1.92,9.4,9.4,0,0,0-1.93-1.6,14.58,14.58,0,0,0-2.18-1.22,11.52,11.52,0,0,0-2.43-.7,13.16,13.16,0,0,0-5,0,10.55,10.55,0,0,0-2.43.7,14.92,14.92,0,0,0-2.18,1.22,9.37,9.37,0,0,0-1.92,1.6,9.2,9.2,0,0,0-1.6,1.92,10.75,10.75,0,0,0-1.22,2.18,11.52,11.52,0,0,0-.7,2.43,11,11,0,0,0-.26,2.5,13,13,0,0,0,1,4.92,13.63,13.63,0,0,0,6.91,6.91,13.1,13.1,0,0,0,9.86,0,13.57,13.57,0,0,0,6.91-6.91,12.92,12.92,0,0,0,1-4.92,11,11,0,0,0-.26-2.5A11.9,11.9,0,0,0,421.44,443.07Z"/></svg>