<svg id="Layer_1" data-name="Layer 1" xmlns="http://www.w3.org/2000/svg" viewBox="0 0 512 512"><defs><style>.cls-1{fill:#dde5e8;}.cls-2{fill:#9bbdc6;}.cls-3{fill:#afc3c9;}.cls-4{fill:#e8a52d;}.cls-5{fill:#b27019;}</style></defs><title>document-exclamation-mark-flat</title><path class="cls-1" d="M422.4,153.6V448a64,64,0,0,1-64,64H76.8a64,64,0,0,1-64-64V64a64,64,0,0,1,64-64h192Z"/><path class="cls-2" d="M268.8,0V89.6a64,64,0,0,0,64,64h89.6Z"/><path class="cls-3" d="M217.6,256a12.8,12.8,0,0,1-12.8,12.8H128A12.8,12.8,0,0,1,115.2,256h0A12.8,12.8,0,0,1,128,243.2h76.8A12.8,12.8,0,0,1,217.6,256Z"/><path class="cls-3" d="M294.4,307.2A12.8,12.8,0,0,1,281.6,320H128a12.8,12.8,0,0,1-12.8-12.8h0A12.8,12.8,0,0,1,128,294.4H281.6a12.8,12.8,0,0,1,12.8,12.8Z"/><path class="cls-3" d="M294,358.4a12.8,12.8,0,0,1-12.8,12.8H128a12.8,12.8,0,0,1-12.8-12.8h0A12.8,12.8,0,0,1,128,345.6H281.22A12.8,12.8,0,0,1,294,358.4Z"/><circle class="cls-4" cx="409.6" cy="422.4" r="89.6"/><path class="cls-5" d="M409.6,422.4a12.8,12.8,0,0,1-12.8-12.8V396.8a12.8,12.8,0,1,1,25.6,0v12.8A12.8,12.8,0,0,1,409.6,422.4Z"/><path class="cls-5" d="M409.6,460.8a12.93,12.93,0,0,1-4.93-1,13.64,13.64,0,0,1-6.91-6.91,13,13,0,0,1-1-4.93,11,11,0,0,1,.26-2.5,11.49,11.49,0,0,1,.7-2.43,10.71,10.71,0,0,1,1.22-2.18,9.17,9.17,0,0,1,1.6-1.92,9.33,9.33,0,0,1,1.92-1.6,14.87,14.87,0,0,1,2.18-1.22,10.52,10.52,0,0,1,2.43-.7,13.16,13.16,0,0,1,5,0,11.49,11.49,0,0,1,2.43.7,14.55,14.55,0,0,1,2.18,1.22,9.36,9.36,0,0,1,1.93,1.6,9.17,9.17,0,0,1,1.6,1.92,14.83,14.83,0,0,1,1.21,2.18,11.9,11.9,0,0,1,.71,2.43,11,11,0,0,1,.26,2.5,12.92,12.92,0,0,1-1,4.93,13.58,13.58,0,0,1-6.91,6.91A12.92,12.92,0,0,1,409.6,460.8Z"/></svg>