<svg id="Layer_1" data-name="Layer 1" xmlns="http://www.w3.org/2000/svg" viewBox="0 0 512 512"><defs><style>.cls-1{fill:#141f38;}</style></defs><title>coins-2-outline</title><path class="cls-1" d="M216.74,305.46c0,19.95-13.05,33.74-36.17,38v8c0,5.22-1.68,6.9-6.9,6.9H159.51c-5,0-6.9-1.68-6.9-6.9v-7.64c-18.27-2.8-30.2-11.93-36-27.22q-2.52-7.27,5-10.06l12.68-4.48c5.41-2,8-.93,10.44,4.48,3,7.64,9.88,11.37,20.51,11.37,14.17,0,21.25-3.92,21.25-11.94,0-7.45-7.27-9.88-22-11.37-10.44-1.31-15.85-1.87-25.36-5.59a32.36,32.36,0,0,1-11.55-6.53c-5.78-5-10.63-14.54-10.63-26.65,0-19.58,12.49-33,35.61-36.72v-7.65c0-5,1.86-6.71,6.9-6.71h14.17c5.22,0,6.9,1.68,6.9,6.71v7.65c15.1,2.61,25.73,10.62,32.06,24.23,2.8,5.22,1.49,8-4.29,10.44l-12.86,5.78c-5,2.24-7.46,1.49-10.26-3.73-3.73-7.27-8.57-10.81-18.82-10.81-13.23,0-18.83,2.8-18.83,10.81,0,6.9,7.83,9.51,22.18,11A129.94,129.94,0,0,1,191,270.41a36.41,36.41,0,0,1,10.07,4.29C209.47,279.74,217.49,289.43,216.74,305.46ZM512,128V359l-5.21,3.84c-28.45,21-90.22,34-161.19,34a533.14,533.14,0,0,1-56.4-2.91A166.4,166.4,0,1,1,166.4,115.2c5.15,0,10.25.25,15.28.71C196.09,81.78,271.25,64,345.6,64,428.29,64,512,86,512,128ZM486.4,271.13C451,285.87,400.29,294.4,345.6,294.4q-6.68,0-13.27-.17a166.12,166.12,0,0,1-3.91,25.45q8.52.31,17.18.32c56.37,0,109.29-9.79,140.8-25.8Zm0-51.2C451,234.67,400.29,243.2,345.6,243.2q-8.75,0-17.33-.3a166.08,166.08,0,0,1,4,25.71q6.61.18,13.3.19C402,268.8,454.89,259,486.4,243Zm0-56.17C455.31,182.4,400.24,192,345.6,192c-13.47,0-27-.6-40.11-1.75a166,166,0,0,1,14.26,26.63c8.5.46,17.13.72,25.86.72,56.37,0,109.29-9.79,140.8-25.8ZM208.86,120.68a166.14,166.14,0,0,1,72.91,41,409.3,409.3,0,0,0,63.83,4.7c91.1,0,140.8-25.37,140.8-38.4S436.7,89.6,345.6,89.6C269.6,89.6,222.42,107.26,208.86,120.68ZM307.2,281.6C307.2,204,244,140.8,166.4,140.8S25.6,204,25.6,281.6,88.76,422.4,166.4,422.4,307.2,359.24,307.2,281.6Zm179.2,64V322.33C451,337.07,400.29,345.6,345.6,345.6c-8.55,0-17-.23-25.3-.64a165.85,165.85,0,0,1-12.81,24.87c12,.88,24.68,1.37,38.1,1.37C413.51,371.2,463.63,358.83,486.4,345.59Z"/></svg>