<svg id="Layer_1" data-name="Layer 1" xmlns="http://www.w3.org/2000/svg" viewBox="0 0 512 512"><title>mauritius-rupee-handdrawn</title><path d="M196.58,188.46c-.19.32,7.51,3.89,7.32,4.22s-4.22.32-4.28.44c-.77,1.34,1-.42.6.35-.35.61-19.36-6.72-19.68-6.17-.85,1.48,18.72,8,17.5,10.11-.4.69-12.14-6.35-12.46-5.78-1,1.67,19.39,9.72,18.75,10.83-.52.9-28-14.57-28.57-13.6-1.5,2.6,33.11,17.22,32.29,18.64-.64,1.11-35.77-21.92-37.16-19.51-1.54,2.67,34.58,17.9,33.68,19.45-1.09,1.89-42.15-23.1-43.46-20.83-2,3.39,39.24,19.81,38,21.95-1.08,1.87-37.43-17.59-38.36-16-2.42,4.2,44.3,22.8,43.1,24.88-1.86,3.22-57.44-31.64-59-29-2.12,3.68,58.71,28.33,56.3,32.51-2,3.46-61.66-34.72-63.46-31.6s72.88,38.81,71.46,41.26-76.13-48.25-78.47-44.19c-1.42,2.46,78.07,41.5,76.52,44.19-1.77,3.06-74.52-43-76.87-38.93-1.61,2.79,73.45,37.3,71.24,41.13-1.22,2.12-62.91-34.52-64.06-32.52-1.79,3.1,62.38,33,61.06,35.26-2,3.49-68.06-41.55-70.51-37.29-2,3.38,64.89,32.06,62.55,36.12-1.82,3.15-54.12-29.27-55.53-26.83s61.27,32.16,59.88,34.57-53.64-27.76-54.62-26.07c-1.37,2.38,40.06,19,38.25,22.09-1,1.71-44.73-24.65-45.86-22.68-1.29,2.24,47.06,24.68,46,26.55-1.33,2.3-48.13-24.08-49-22.52-1,1.75,48,23.71,46.29,26.73-1.52,2.63-39-18.85-40.06-17-1.33,2.3,28.9,14.52,28,16.15s-29.67-16.66-30.33-15.51c-.78,1.36,21.55,10.87,20.87,12-.57,1-17.07-5-17.51-4.18s8.65,2.93,7.76,4.48c-.42.73-16.1-7.67-16.72-6.6s19.92,9.84,19.2,11.09c-.19.34-6.14-3.21-6.26-3-.6,1,3.11.55,2.57,1.48-.3.52-13.49-8.17-14-7.28-.38.66,6.87,3.16,6.52,3.77s-8.84.72-9,1,7.45,4.07,7.35,4.24c-.21.37-7.19-1.93-7.34-1.68,0,0,2.94,1.65,2.92,1.69" fill="none" stroke="#999" stroke-linecap="round" stroke-linejoin="round" stroke-width="1.1"/><path d="M412.89,220.82c-3.51,6.08,91.93,45.56,88.68,51.2-1.75,3-76.82-50.56-80-45.14-3,5.18,80.23,38.77,77,44.44-2.73,4.72-69.17-41.2-70.77-38.43-1.89,3.27,68.47,34.48,66.28,38.27-1.86,3.22-59.45-32.35-60.79-30-2.2,3.81,63.43,29.85,60.5,34.93-2.08,3.6-64.38-35-66.16-31.89-2.42,4.19,78,38.65,75.25,43.45-2.25,3.91-69.85-42.74-72-39-3,5.27,69.21,34.32,66.77,38.55-2.71,4.69-68.74-37.15-70.22-34.59-3,5.2,74.8,39.34,73.13,42.23-2.92,5.06-74.28-42.29-76.28-38.83-3,5.22,81.32,42.78,79.51,45.91-2.18,3.77-76.58-44-77.91-41.73-3.22,5.59,68.3,32,65.07,37.57-1.88,3.25-70.9-39.93-72.35-37.41-2.31,4,81.55,38.63,77.89,45-1.7,2.94-87.2-50.85-89.6-46.7-3,5.2,88.69,46.53,86.67,50-1.76,3.05-89.92-54.92-92.64-50.2-3.18,5.51,96,48.61,93,53.71-1.89,3.28-96.84-59.37-100.21-53.53-3.64,6.31,106.92,51.28,102.39,59.12" fill="none" stroke="#999" stroke-linecap="round" stroke-linejoin="round" stroke-width="1.1"/><path d="M372.49,235.71c-.16.27,6.64,3.49,6.49,3.75-.51.89-18.8-5.64-19.13-5.07-1,1.74,18.5,9.39,17.94,10.36s-15.63-8-16.06-7.28c-.74,1.28,22.16,10,20.94,12.09-.86,1.49-33.54-18-34.6-16.15C342,244,503.36,315.86,500.24,321.27c-4.58,7.93-144.38-91.65-148.82-84-4.23,7.33,145.5,70.56,139.67,80.65-4.3,7.45-141.19-86.28-145.69-78.47-5.92,10.25,147.33,75.5,143.19,82.68-3.54,6.13-147.25-89-151.1-82.29-2,3.53,63.69,32.38,61.79,35.68-1.28,2.21-60.38-36.11-62.55-32.36-1.31,2.27,51.29,27.37,50.32,29.05s-41.37-23.74-42.13-22.42c-1.81,3.14,29.4,14.61,28.38,16.38-.84,1.45-27.4-16.27-28.16-15-1.05,1.82,21.43,10.5,20.62,11.9-1,1.81-32.27-14.87-32.94-13.69-.55.95,22.49,10.54,21.43,12.38-.33.57-13.8-5.13-14.11-4.59s4.44,1.15,3.83,2.21c-.19.32-6.93-3.25-7.19-2.81-.16.29,7.85,4.22,7.71,4.45" fill="none" stroke="#999" stroke-linecap="round" stroke-linejoin="round" stroke-width="1.1"/><path d="M421.41,287.27c-1.49,2.59,74,35.24,70.77,40.87-2.21,3.82-58.8-32.31-60.1-30.06-1.52,2.63,61.06,30.16,58.85,34-2.1,3.64-60-37.82-62.06-34.29-1.92,3.32,63,31.09,60.71,35.05-1.22,2.12-59.53-34.3-60.62-32.42-2.12,3.68,67,34.05,65,37.54-1.63,2.82-55.43-32.22-57.2-29.14-1.64,2.85,58.44,30.95,57.23,33-1.63,2.83-56.92-34.76-58.79-31.52-2.33,4,47.8,24.4,46.42,26.8-1.49,2.57-48.59-27.45-50-24.94C430,315,484.25,337,481.84,341.2c-1.24,2.15-48.67-28.15-49.69-26.39-2.24,3.88,48.33,22.51,46,26.56-.88,1.53-48.52-29.7-49.49-28-1.07,1.85,62.78,32,60.95,35.19-2,3.45-58.68-34-60.7-30.51-1.43,2.47,60.49,31.92,59.19,34.18s-50.53-28.14-52.52-24.69c-1.86,3.23,47,23,45.23,26.11-1.53,2.65-48.62-26.31-49.52-24.76-1.9,3.28,53.31,27.13,51.73,29.87-1.82,3.15-48.95-29.8-49.88-28.18-1.71,3,53.8,26.56,51.85,29.94S433.8,330.85,432,333.91s51.38,25.92,49.76,28.73c-1.91,3.32-49.75-26.68-51-24.5-1.14,2,53.71,26,51.53,29.75-1.93,3.34-52.34-28.8-53.39-27-1.71,3,48,24.33,46.5,26.85-1.16,2-46.95-28.37-48.06-26.45-1.67,2.89,49,25.07,47.57,27.47-1.87,3.25-52-27.22-53.31-24.87-1.73,3,47.23,22.38,45.11,26-.78,1.35-41.26-23.4-42.6-21.08-2,3.55,51.48,25.57,49.68,28.69-1.1,1.91-42.34-25.08-43.47-23.12-1.71,3,43.46,20.84,41.62,24-1.49,2.58-48.08-27.79-49.3-25.68-1.35,2.35,53.45,25.54,51.14,29.53-1.25,2.16-55.46-29.52-56.75-27.28-1.84,3.18,56.34,28.81,54.73,31.6s-59-36-61.3-32c-2,3.53,52.48,25.93,50.59,29.21-1.55,2.68-44.46-26.42-45.94-23.84-1.09,1.88,52.1,27.29,50.89,29.39s-47.4-30.15-48.9-27.55c-1.24,2.15,45.22,23.23,44,25.39-1,1.81-50.47-26.74-51.8-24.43-1.12,1.93,57.89,27.62,55.38,32-2.36,4.08-62.84-35.82-64.44-33.06-2.55,4.42,55.09,28.54,53.67,31-1.57,2.72-43.63-26.9-44.59-25.23-1.65,2.85,47.71,23.13,45.79,26.44-1.73,3-51.36-27.46-53-24.53-2.5,4.33,56.69,29.05,55.1,31.81s-69.06-38.86-70.54-36.3c-2.22,3.84,69.47,36.27,67.81,39.15-1.86,3.22-58.17-35.6-59.46-33.37-1.83,3.17,54.14,27.82,52.65,30.4-1.7,2.95-56.8-31-57.85-29.18-2,3.47,64.43,31,61.75,35.65-2.16,3.75-70.18-42.13-72.78-37.63-2.3,4,70.64,35.52,68.36,39.47-2.41,4.17-74.84-44.08-76.39-41.39-3.22,5.58,72.18,35.68,69.58,40.18-2.75,4.77-73.79-42.43-76.4-37.93-2,3.43,84.88,40.93,81.39,47-3.08,5.34-74.64-48.75-77.32-44.1-2.11,3.65,85.24,41,81.69,47.17-2.05,3.56-101-57.16-103.25-53.3-2.1,3.63,99.93,49.32,96.3,55.6-2.09,3.62-85.14-55.13-88.47-49.36-3.47,6,90.58,44.22,87.08,50.28-3,5.23-87-54.68-89.62-50.12-2.85,4.93,92.19,46.4,89.24,51.52-3.1,5.36-89.57-57.53-92.66-52.18-1.89,3.28,97.4,49.52,94.49,54.56-3.68,6.38-110.45-68.73-113.54-63.38-2.83,4.9,106.18,51.57,102,58.87-2.47,4.28-105.94-67.32-110-60.31C317.9,368.18,435.5,422.66,433,427.06" fill="none" stroke="#999" stroke-linecap="round" stroke-linejoin="round" stroke-width="1.1"/><path d="M325.66,312.92c-.92,1.59,33.06,17.09,32.19,18.59-.7,1.21-31.17-16.49-32-15.15-1.06,1.84,36.87,19.72,36.19,20.9s-21.78-13.43-22.63-12c-1.13,2,15.65,6.86,14.71,8.49s-23.31-13.6-23.95-12.49c-.79,1.36,30.77,14.68,29.43,17-.45.78-17.74-5.71-18.3-4.75-.42.72,3.62,1.16,3.22,1.86-.25.43-9.82-4.54-10.13-4s9.48,5.19,9.36,5.4" fill="none" stroke="#999" stroke-linecap="round" stroke-linejoin="round" stroke-width="1.1"/><path d="M375.16,305.55c-.12.2,7.15,3.87,7,4.07-.32.55-10.74-4.91-11-4.4-.63,1.09,13.51,6.63,13,7.51-.35.6-11.87-6.75-12.11-6.33-.74,1.28,1.43-.11,1,.59-.15.25-4.4-2.83-4.56-2.54-.82,1.41,15.31,7.55,14.75,8.52-.3.53-12-6.43-12.39-5.7-.59,1,6,1.79,5.29,3.06-.45.77-18.35-9.77-19-8.69-1.25,2.17,30.66,14.77,29.39,17-.81,1.4-37.1-22.78-38.54-20.29s38.89,19.29,37.52,21.66c-1.86,3.22-53.94-30.16-56-26.63-2.13,3.69,47,23,45.23,26.11S315.42,286,314.12,288.27c-1.55,2.68,68.12,35.42,66.43,38.36" fill="none" stroke="#999" stroke-linecap="round" stroke-linejoin="round" stroke-width="1.1"/><path d="M235.75,161c-2.33,4,76.07,38.61,73.76,42.59s-58.73-37.67-60.63-34.38c-1.48,2.56,74.67,36,71.61,41.35-2.1,3.64-75.8-48.12-77.78-44.69-3,5.28,77.47,38.28,74.67,43.12-1.61,2.8-60.77-33.13-62.15-30.74-1.91,3.31,57.88,28.09,55.57,32.09-1.38,2.39-56.49-34.21-58.65-30.47-1.14,2,59.32,30.08,57.51,33.21-1.07,1.86-47.42-25.87-49.07-23-1.82,3.15,45.91,22.68,44.26,25.55-1.33,2.3-46.13-27.73-47-26.19-1.59,2.75,38,19.64,37,21.35-1.39,2.41-36.35-18.67-37.18-17.23-1.19,2.06,36.62,18.13,35.31,20.39-.8,1.39-32.17-17.48-32.91-16.2-1,1.78,30.32,14.32,28.94,16.71-.58,1-26.67-15.73-27.53-14.25-1,1.7,39.58,19.83,38.27,22.1-.66,1.14-29.39-18.35-30.09-17.14-1,1.79,28,12.65,26.49,15.3-.9,1.56-33.42-16.53-34.23-15.12-1,1.78,26.25,11.67,24.74,14.28-1,1.72-26.34-11.26-27.1-10-.94,1.64,33.62,16.37,32.3,18.65-.65,1.13-29.29-15.54-30.3-13.79-1.38,2.4,26,13.54,25.37,14.65s-28.43-13-29.14-11.73c-1,1.8,34.07,17.44,33.1,19.11S261,218.62,260,220.23c-1.23,2.13,24.05,11,22.78,13.15-.67,1.15-20.62-7.29-21.09-6.48-1.23,2.12,23.69,11.18,22.6,13.05-.8,1.39-26.23-10.6-26.79-9.62-.86,1.48,20.38,9.83,19.54,11.28-.41.72-14.39-7.24-14.66-6.78-1.2,2.08,19.4,8.11,18.06,10.43-.4.7-22.52-12.88-23.33-11.48-.9,1.56,28.06,13.24,26.78,15.46-.47.81-20.84-12.13-21.4-11.15-1.1,1.91,24,11.68,23.05,13.31-.78,1.35-22.52-9.73-23-9-1.25,2.16,20.93,10.25,20.14,11.63-.41.71-23.73-10.68-24.65-9.09-1.35,2.34,28.07,13.37,26.84,15.5-.89,1.54-22.47-12.45-23-11.53-.85,1.48,17.3,8,16.44,9.49-.56,1-18.17-8.53-18.79-7.44-.88,1.53,23.31,10.23,21.91,12.65-1.31,2.27-35.09-17.35-35.94-15.88-1.85,3.21,49.25,23.59,47.15,27.22-1.28,2.22-40.54-20.68-41.85-18.41-5.54,9.6,130.17,62.95,124.88,72.11-3.88,6.72-136-78.28-138.41-74-5.45,9.45,139.45,71.28,135.45,78.21S245.87,257.6,242.59,263.28c-2.48,4.3,125.8,62,121.18,70-4.78,8.28-126.92-80-131.61-71.91-1.76,3,91.66,44.41,88,50.8-3.54,6.14-92-55.86-94.71-51.11-.26.45,9.08,4.75,8.87,5.12s-9.7-4.83-9.91-4.46c-.06.11,3.12,1.69,3.07,1.77" fill="none" stroke="#999" stroke-linecap="round" stroke-linejoin="round" stroke-width="1.1"/><path d="M242.82,271.31c-2.44,4.23,71.57,35.67,69.12,39.91-1.43,2.48-60.79-34.35-62.88-30.73-1.44,2.49,46.45,23.49,45,26-.67,1.17-28.82-12.5-29.66-11s26.37,12.44,25.16,14.53c-.58,1-27.9-14.24-28.78-12.71-.73,1.26,23.71,11.92,22.94,13.25-.57,1-26.32-12.19-27.32-10.45-.54.94,23.84,11.26,22.75,13.14-.39.68-18.67-10.23-19.34-9.07-1.09,1.89,23.63,11.62,22.76,13.14s-24.21-8.93-24.73-8c-.81,1.41,23.6,11.55,22.7,13.11-.49.85-24.09-12.88-24.85-11.56-1.21,2.1,24.28,12.13,23.46,13.54-.38.67-19.26-10.75-19.72-9.94-.84,1.45,23.46,12.25,22.9,13.22s-20.62-8.78-21.38-7.47,27.34,13,26.11,15.08c-1,1.69-26.61-15.95-27.09-15.12-1.35,2.34,30.49,15.06,29.39,17-.78,1.35-24.26-10.13-24.71-9.35-1.69,2.93,27.14,12.95,26,15-.48.84-19.67-9.67-20.32-8.54-4.64,8,163.61,84.89,159.46,92.07C423,437.91,265.49,323.47,259.59,333.69c-6.33,11,171.41,89.53,167.32,96.61-4.61,8-162.55-98.67-166.86-91.21-3.5,6.05,165.52,85,160.95,92.93-4.94,8.56-156.15-98-161.66-88.42-4.19,7.26,164.08,83.84,159.36,92-5.89,10.2-149.79-95.09-154.8-86.41-4.16,7.21,164.63,87,161.16,93.06-6.28,10.88-159.73-96.59-163.23-90.52-4,6.86,152.54,80,149.06,86.07C408.29,442.28,267,350.42,263.74,356s154.78,82.07,151.62,87.54c-4.42,7.66-140.58-89.66-145.12-81.8-5.24,9.08,143.26,73.89,139.43,80.51-2.72,4.72-139.15-84-142-79.18-5.41,9.37,149.69,78.13,146.1,84.36-2.53,4.37-139.22-84.8-141.89-80.16-5.4,9.36,139.46,73.44,136.4,78.76-5.76,10-150.55-87.47-153.27-82.77-5.49,9.51,164.7,80.82,158.52,91.53C409.41,462,258.75,355.71,253,365.64,247,376.12,415,445.4,409,455.71c-2.82,4.88-145.14-91.22-148.4-85.56-4.46,7.73,149.88,79,146.63,84.66C403,462.2,265.57,360,259.75,370.12c-6.5,11.27,145.12,75,141.29,81.58-6,10.4-152.95-97-158.54-87.35-6.67,11.55,171.17,85.1,165.22,95.4C403.36,467.32,244,359.3,240,366.37c-6.17,10.69,163.71,80.26,157.53,91-6,10.35-157-98-160.71-91.56-6,10.39,164.9,80.56,158.55,91.55-3,5.19-165.39-99.31-169.67-91.91-4.06,7,179.22,87.92,172.48,99.59-4.08,7.07-158.27-106.2-164.79-94.91s160.07,83.68,156.28,90.24c-3,5.25-160.81-102.86-166-93.91-4.78,8.28,172.34,84.47,165.83,95.75" fill="none" stroke="#999" stroke-linecap="round" stroke-linejoin="round" stroke-width="1.1"/><path d="M192.94,282.79c-.13.23,6.32,3.34,6.18,3.57-.32.56-11.19-3.1-11.57-2.44-.76,1.32,8.85,3.17,8,4.63-.34.59-16.73-5.31-17.29-4.35-.84,1.46,21.77,10.74,21,12.11-.9,1.56-23.9-12.12-24.32-11.38-1.53,2.65,30.08,14.24,28.72,16.58-.73,1.26-35-20.77-35.69-19.64-1.73,3,31,13.85,29.24,16.88-.68,1.19-36.12-18.73-37.44-16.45-1.92,3.33,46.81,24,45.48,26.26-1.06,1.83-55.73-30.4-57.23-27.79-1.31,2.27,63,30.73,60.55,35-1.3,2.25-50.92-30.12-51.8-28.58-1.81,3.14,47.8,24.1,46.28,26.72-2.1,3.64-53.93-34.31-55.35-31.86-1.9,3.28,64.7,33.32,62.95,36.35-1.85,3.2-63.25-38-64.68-35.53-1.65,2.86,58.79,27.72,56.09,32.39-1.47,2.55-51.56-33.3-53.44-30-2,3.51,62.7,32,60.87,35.15-1.13,2-64.6-37.66-67-33.5s66.31,30.79,63.06,36.41c-2.21,3.82-62.61-41.13-65.06-36.88-2,3.55,74.86,37.13,72.22,41.7-2.89,5-80.87-52.08-83.81-47-2.64,4.57,76.79,39,74.46,43-2.13,3.7-69.1-38.89-70.91-35.76C129.72,293,209,327.93,207,331.37c-2.32,4-76.74-49.21-79.75-44S206,325,202.59,330.89c-1.31,2.27-68.8-42.33-70-40.19-3,5.22,72.46,35.65,69.78,40.29-1.59,2.76-71.33-43-72.8-40.42-1.94,3.36,86.15,46.32,84.67,48.89-2.09,3.62-72.2-41.25-74-38.08-2.42,4.19,71.91,37,70,40.4-1.66,2.87-80.36-49.49-82.56-45.67C124.17,302,215.23,340,212.32,345,209,350.72,130,294.93,127,300.12c-3.31,5.73,83.86,44.56,82.19,47.46S132.45,305.69,131.1,308c-3.25,5.64,75.79,40,74.15,42.82-2.42,4.19-69.86-37-71.15-34.76-9.43,16.33,260.46,135.56,254,146.68-8.84,15.32-244.32-150.23-250.59-139.37-8.18,14.18,257.27,130.43,249.42,144-7.15,12.38-239.69-153.1-247.41-139.73-9.23,16,248.69,124.45,240.4,138.81-4.71,8.15-235.74-151.16-243.28-138.11-5.94,10.29,247.69,124.3,239.59,138.34-5.06,8.77-231-151.85-240.11-136-4.5,7.8,250.19,124.44,241.52,139.46C372,480.1,145.55,320.09,138.14,332.93c-8.6,14.9,241.15,126.76,235.74,136.12-4.81,8.34-228.55-139.77-233.3-131.55-7.41,12.84,235.85,125.79,231.36,133.59-5.3,9.17-231.14-152.81-240.27-137-6.79,11.75,257.55,127.58,248.4,143.43-8.42,14.58-237.71-149-244.19-137.78-8.56,14.82,244.4,122,236.12,136.33-7.6,13.17-224.18-149-233.53-132.79-9.53,16.51,240.36,127.55,235.49,136-7.64,13.24-235.19-143.44-240.73-133.85-7.81,13.53,241.68,124.13,235,135.69-7.9,13.68-228.76-143.52-234.29-133.93C129.57,354.77,372.57,473.06,367.41,482c-4.28,7.41-222.68-143.07-230.34-129.8-6.5,11.26,235,124.64,230.21,132.92s-222.51-137-228.42-126.75c-8.15,14.11,230.72,111.71,221.41,127.84-7.52,13-217.75-133.27-222.26-125.47C130.13,374.4,357.6,474,351.75,484.15c-6,10.34-212.69-131.07-216.65-124.21-8.88,15.39,224.2,113,217.08,125.34-4.33,7.51-209.29-138.09-216.82-125-9,15.57,214.68,113.93,210.34,121.45-4,7-198.7-130.48-206.73-116.56C130,380.62,358.72,471.22,349.71,486.82c-4.93,8.54-203-135.14-210.91-121.4-4.45,7.72,221.7,113,215.21,124.26-5.84,10.11-210.12-128-214.86-119.82C131.28,383.51,350,474,342.36,487.18c-7.53,13-210.26-128-215.17-119.47-6.47,11.2,220,115.93,215.23,124.27-8,13.8-214.32-131.24-219.21-122.77C116.24,381.28,340.46,484,335.83,492c-8.22,14.24-213.76-132.37-219.36-122.67-5.15,8.93,217.35,104.89,208.43,120.35-7.74,13.41-219-136.84-225.42-125.75-8,13.8,239.4,118.1,230.68,133.2-5.49,9.51-224.71-138.53-231.12-127.43C93.11,380,327.95,485.46,320.85,497.75,316,506.19,99.55,353.49,90.56,369.06c-6.31,10.93,230.27,111.63,221,127.62" fill="none" stroke="#999" stroke-linecap="round" stroke-linejoin="round" stroke-width="1.1"/><path d="M381.29,40.44c-.43.74,3.73,1.15,3.29,1.9-.93,1.61-24.21-12-24.63-11.31-2.4,4.16,44.37,22.42,43,24.82S329.72,15.78,328.43,18c-2.68,4.65,91.63,44,87.78,50.69-2.82,4.88-83-51.92-85.35-47.86-3,5.27,97.39,51.59,95.38,55.07S320,12.38,317.77,16.18c-4.62,8,120.05,63.49,117.53,67.86C433.13,87.81,315.43,5.86,310.7,14S438.26,81.43,435.55,86.13c-3.57,6.18-133.94-83-138.23-75.55-5.76,10,143.4,74.41,139.77,80.7-4.22,7.3-139.76-82.93-143.4-76.63-6.86,11.88,160.86,85,157.45,90.91C445.5,115.34,281.06,1.72,276.44,9.74,270.63,19.8,461.56,101.39,455,112.82c-6,10.39-181-112-186.42-102.6-4.8,8.31,205,109.62,201.18,116.16-4,6.84-202.11-130-208.35-119.18-3.78,6.54,211.89,112.84,207.78,120-5.07,8.77-209.32-130.93-216-119.28-4.6,8,223.69,114.56,217.37,125.51C466.24,140.74,257,5.38,253,12.32c-5.55,9.62,224.81,120.34,220.71,127.44C466.91,151.61,246.37-7.35,238,7.08c-6.47,11.21,240.37,120.85,232.6,134.31C462.77,155,243.27,1.24,237.17,11.81c-5.15,8.92,251.1,133,245.92,142-6.85,11.87-243.91-146-248.49-138C228.75,25.93,484,142,476.27,155.33,470.64,165.08,228,.8,221.55,12.06c-6.18,10.71,267.09,142.29,261.92,151.24C475.81,176.57,216,2.68,210.83,11.65c-6,10.4,292.48,145,282.13,162.91C481.65,194.16,217.22,2.93,209.18,16.85,198.64,35.12,501.53,168.4,494.06,181.34,484.52,197.88,210.74,4.78,204.26,16c-6.95,12,290.53,153.8,284.49,164.27C478.28,198.41,208.58,5.45,200.36,19.69c-5.5,9.52,302.68,147.66,290.94,168C483.16,201.77,199.87-5.25,187.87,15.53,176,36.05,512.54,174.31,500.12,195.83c-9.71,16.82-294.18-182.72-300-172.62C189,42.39,507.6,177.88,497.69,195c-6.81,11.79-298.35-198.28-310-178.16-7.67,13.28,311.21,163.39,304.15,175.62C480.23,212.69,196.35,15.84,191.09,25c-6.41,11.11,315.69,167.27,309.19,178.53C489.8,221.63,187.81,10.64,180.59,23.14c-9.38,16.25,321.57,156.25,308.83,178.32-8.55,14.8-309.68-190.62-315.26-181-5.89,10.2,337.8,171,327.41,189C494.41,222,181.76,1.3,169.39,22.71c-10.31,17.86,345,176.89,335.3,193.6C495.62,232,175.94,17.85,170,28.15,162,42,501.43,202.67,494.13,215.31c-8.67,15-321.93-203.16-331-187.41C152.43,46.4,504,197.18,492,217.83,484.93,230.15,169.6,9.53,157.35,30.76c-11.17,19.36,355.3,187.17,347.52,200.66C496.44,246,159.86,15.18,150.7,31.05,141,47.92,506.54,215.17,497.3,231.18,484.34,253.62,157.64,10,145.58,30.88c-6.88,11.92,366,196.25,359.49,207.57C491.5,261.94,161.61,25.31,154.72,37.24,143,57.59,505.23,223.41,498.21,235.57,488.16,253,155.6,23.66,147.28,38.06c-10.39,18,360.66,190.53,353,203.82-11.15,19.31-353.6-217-360.71-204.73-8.66,15,379,188.59,365.94,211.29C491.88,272,145,17.23,132.42,39,123.79,53.91,521.85,231.78,508,255.82c-10.38,18-355.12-229.58-367.14-208.75C132.84,60.92,512,242.94,504,256.75,495.85,270.85,141.88,23.22,130.26,43.34c-7,12.17,384.43,198.91,374.44,216.2C491.49,282.43,143.49,22.1,130.19,45.14,118.76,64.94,507,241.77,497.91,257.47c-11.18,19.37-353.57-227.16-364.62-208C120.86,71,509,238.55,496.91,259.43c-7,12.1-357.07-226.26-367.49-208.23C116.8,73.07,505.8,251.85,498.58,264.35,485.5,287,134.13,25.75,120.67,49.06c-7.9,13.68,393.71,200.31,382,220.58C492.49,287.3,133.85,38.27,123.29,56.56,116,69.14,387.14,194,380.68,205.17,376.1,213.09,122.22,44.86,115.16,57.09c-4.81,8.33,259.08,134.29,252.45,145.77-4.62,8-240.41-157.19-249.5-141.43-4.86,8.42,249.38,127.51,242.25,139.87-6,10.32-247.09-157.9-254.06-145.84-4.73,8.2,251.39,131.33,245.4,141.7-5.76,10-239.43-153.5-248-138.61C94,75.37,355.33,193.18,350.71,201.19S109,44.33,99.66,60.45c-6.53,11.31,253.39,124,243.75,140.74C337.53,211.39,104.1,50.3,98.21,60.49c-9.3,16.12,253.51,128.69,245.85,142C335.26,217.69,115.57,58.08,107.6,71.88,102.21,81.22,333.72,184,325.74,197.83c-6.79,11.76-216.7-144-225.28-129.09C93.69,80.46,339,196.17,334.55,203.91,325.66,219.31,109.62,54.46,101,69.31,93.7,82,346.62,189,337,205.58,332.16,214,109.12,59.66,102.47,71.19,94.42,85.14,330.53,187.82,324,199.11,318.6,208.49,105.76,54.2,97.49,68.53c-6.38,11.05,243.28,120,234.4,135.35C327.2,212,101.66,57.64,95.09,69,88.68,80.13,337.21,194.13,330.86,205.15,326.72,212.31,107.11,57.87,98.19,73.32,90.84,86,335.31,190.45,326.74,205.29,319.59,217.68,99.44,61.66,93.26,72.36c-8,13.93,231,113.8,222.5,128.47C310.4,210.12,96,67.78,92,74.84c-7.7,13.34,234,119.92,227.43,131.32C314.24,215.08,95.48,66.57,88.32,79c-3.61,6.25,123.55,59.28,118.33,68.32C203.12,153.41,87.4,74.71,83.55,81.38c-4.81,8.34,116,60.19,113,65.27-2.43,4.21-112.27-70.21-115.7-64.26-3.61,6.25,119.35,60.4,115.67,66.79-2,3.53-113-73.74-117-66.9-3,5.15,106,54.15,102.92,59.43-2.18,3.77-101.71-59.18-103.59-55.91-3.9,6.75,109.44,52.72,104.91,60.57-2.46,4.26-96.85-59.2-99.36-54.86-3,5.11,96.31,50.37,94,54.3-3.16,5.47-93.25-57.48-96.76-51.41-2.39,4.14,93.55,44.82,89.57,51.72-3.16,5.47-97.05-61-100.1-55.7-4.13,7.15,98.17,49,94.85,54.77C163.64,149.39,72,89.2,70,92.65c-2.29,4,91.31,47,88.81,51.28C155.93,148.93,70,89,68,92.36c-2.81,4.87,90.81,45.55,87.83,50.71-3.25,5.63-81.12-50.52-84-45.54C69.5,101.65,162,142.65,159,147.86c-2.57,4.45-90.3-56.1-92.9-51.6-3,5.13,90.89,46.73,88.4,51-3.06,5.29-81.25-52-83.87-47.41-2.8,4.84,83,39.35,79.29,45.79-2,3.5-83.18-48.51-85.54-44.42s80.68,42.41,78.87,45.54-70-42.61-71.87-39.29c-2.53,4.38,67.43,34.33,65.44,37.78-1.49,2.59-76.8-48.73-79.85-43.46-2.17,3.77,76.59,39.68,74.62,43.09-1.72,3-68.22-40.72-69.56-38.39-2.23,3.86,68.86,34.75,66.69,38.51-1.89,3.27-64.09-34.85-65.82-31.86C60.74,117,122.22,142,119.87,146c-1.45,2.5-61.74-37.89-63.37-35.06-2.17,3.76,67.11,32.29,64.31,37.14-1.49,2.59-65.3-38.41-67.61-34.41s63.9,31.47,61.55,35.54c-1.48,2.57-54.71-30.74-56-28.44-1.65,2.85,49.21,25.4,47.91,27.66-1.84,3.19-51.14-32.42-52.57-29.93S99.67,141,98,143.9c-.87,1.5-49.14-26.49-50.65-23.87-1.14,2,51.7,27.43,50.65,29.25-1.6,2.76-52.57-27.43-53.7-25.48-1.37,2.37,33.41,16.73,32.3,18.65-.52.9-26.55-16.62-27.53-14.92-1.31,2.27,36.15,19,35.35,20.41-1.29,2.23-40.62-25.3-41.78-23.29-1.31,2.26,36.15,18.22,35,20.21-.7,1.21-24.42-10.37-25-9.33-1.44,2.49,17,7.37,15.94,9.2-.71,1.22-23.4-9.3-23.94-8.38-1,1.75,32.78,15.37,31.24,18-.61,1.06-33.24-19.12-33.85-18.07C40.5,139,79.65,155.41,78.51,157.39c-.63,1.09-30.53-16-31.28-14.76-1.11,1.92,29,14.65,28.1,16.23-1.13,2-33.7-18.61-35-16.39-1.09,1.88,33.7,17.31,32.77,18.92-.51.88-28.55-15.21-29.52-13.53C42.41,149.94,70.86,160,69.29,162.7c-1,1.81-33.14-21.82-34.45-19.54-1.22,2.11,40.23,19.26,38.51,22.24-1,1.73-31-17.38-31.58-16.41-1.32,2.29,33.59,16.93,32.53,18.78-.74,1.29-29.55-19.45-30.76-17.37C42,153,83.69,169,81.7,172.42c-1.62,2.8-47.07-26.35-48.28-24.24-2,3.39,46,23.66,44.73,25.83-1.61,2.78-48.91-25.5-50.22-23.23-1.22,2.11,48.55,23.12,46.42,26.8-.89,1.55-36.72-22.56-37.45-21.3-1.83,3.16,35.58,17.51,34.27,19.79-1.17,2-38.86-20.35-40.06-18.29-1.52,2.64,52.56,26,50.69,29.27-1,1.8-51.33-33-53-30.14C27.59,159,83,184.32,81.32,187.25c-1.81,3.13-53.08-33.26-55-29.88-2.16,3.74,46.63,24.07,45.39,26.21S24.9,155.59,23,158.79c-1.15,2,49.27,23.4,47.08,27.19-1,1.67-34-21.13-34.87-19.56-1.9,3.29,34.85,15.68,32.93,19-1,1.78-43.14-25.78-44.26-23.84-1.22,2.1,45.76,23.8,44.62,25.77-1.63,2.83-42.79-24.87-43.72-23.26-2.16,3.74,51.65,26.25,50.1,28.93-.92,1.6-42.34-25-43.46-23.12-2.26,3.92,45.68,23.21,44.31,25.59s-41.46-26.39-43-23.8c-1.18,2,44.22,20.35,42,24.24-1,1.69-45-26.71-45.85-25.24-1.09,1.89,50.5,24.43,48.46,28C76.06,201,30,170.55,28.28,173.6,27.1,175.64,71.73,196,70.57,198S30.88,174,29.94,175.58c-1.64,2.83,40,18.56,38.07,22-1.26,2.19-45.49-25.49-46.66-23.47-2.48,4.3,54.7,28.48,53.35,30.81S26.34,177.8,25.41,179.4c-1.91,3.32,53.32,25.18,50.89,29.39-1.55,2.68-51.94-29.92-53.82-26.65C21.35,184.1,72.36,207,70.66,210s-48.41-28.52-49.47-26.69c-2,3.51,50.89,24.44,48.75,28.15-1.61,2.79-49.52-26.34-51.25-23.35-2.62,4.54,51.85,24,49.3,28.47-.8,1.39-41.35-23.18-42.75-20.76s44.37,22.73,43.12,24.9c-1.71,3-49.51-29.1-51.18-26.21-2.32,4,62.26,32.87,60.93,35.18-2,3.43-51.25-33-52.79-30.32-2.32,4,51.77,26.74,50.4,29.1-1.89,3.27-62.07-35.07-64-31.77-2.57,4.45,63.19,31.29,60.94,35.19-1.43,2.48-53.53-28.19-54.46-26.59-1.46,2.54,55.62,29.29,54.39,31.41C71.25,239,13,202.24,10.87,205.91c-1.37,2.37,61.32,32.41,60,34.66-2,3.4-49.31-30.2-50.73-27.74-2.48,4.3,62.55,31.91,60.73,35.06-1.51,2.62-62.47-35.69-63.71-33.53-2.6,4.51,67.5,32.65,64.76,37.39C79.88,255.33,21,212,18.71,216s56.11,27.2,53.86,31.1c-2.57,4.46-62.76-39.29-64.12-37-1.44,2.5,67.11,32.16,64.25,37.1-1.4,2.42-63.21-41.11-65.3-37.49-2.4,4.16,76,40.48,74.54,43C79.76,256.62,13,207.7,10.48,212.08c-1.88,3.26,65,31,62.17,35.9-1.4,2.42-57.37-35.48-58.89-32.85-1.38,2.4,60.33,30.59,58.49,33.77-1.05,1.82-59-37.59-61.41-33.46C8.69,219.18,74,245.15,71.06,250.2c-2,3.52-56.91-30.86-58.63-27.89-2.22,3.84,64.15,32.52,62.19,35.91-1.41,2.43-58.6-34.66-60.38-31.57-1.51,2.62,60,30,58,33.48C70.77,262.64,10.06,221,8.49,223.72c-1.83,3.16,73,38.27,71.34,41.19-2.53,4.38-65.31-40.65-67-37.77-1.52,2.63,67.56,32.74,64.85,37.44-1.23,2.13-60.12-38.8-62.44-34.77-2.84,4.93,61.29,28.84,58.46,33.75C71.15,268,6,222.79,4.56,225.28c-1.69,2.93,67.57,32.63,64.81,37.42C66.89,267,5.76,228.26,4.49,230.46c-2.39,4.15,71.37,35.06,68.71,39.67-1.27,2.2-55.48-31.21-57-28.5-1.39,2.41,63.63,33.49,62.22,35.93-1.21,2.09-61.76-37.22-63.57-34.08-3,5.25,57.76,28.08,55.48,32-1.19,2.06-59-34.58-61.2-30.85s68.14,33.55,65.63,37.9c-2.33,4-57.79-35.72-59.57-32.63-1.36,2.36,67.36,35,65.67,37.92-2.89,5-71.87-44.65-73.41-42-1.75,3,75.54,39.78,73.88,42.66-2.42,4.2-63.81-41.32-65.76-37.94C14,253.21,78.6,283.48,77.07,286.13,74.36,290.82,5.34,246.82,4,249.21c-2.48,4.29,71.79,38.17,70.37,40.63-2.25,3.9-61.58-40.54-63.83-36.64-2.42,4.19,67.27,35.73,65.93,38.07-1.51,2.61-63.61-37.17-64.77-35.15C9.38,260,70.16,285.39,68.2,288.78c-1.62,2.81-51.3-26.18-52.42-24.25-2.44,4.22,64.41,33.24,62.7,36.2-2.16,3.74-69.19-38.36-71.12-35-3,5.2,62.1,32.75,60.76,35.08-1.09,1.89-57.34-34-58.76-31.52-3.1,5.37,70.07,34.9,67.66,39.07-2.15,3.72-65.67-40.58-67.44-37.52-2,3.53,63.77,33.64,62.39,36-1.93,3.35-57.76-37-59.63-33.79C9.68,277.68,80,308.65,78.5,311.25c-1.28,2.22-73-42.9-74.81-39.71-1.55,2.69,76.67,40.42,75,43.31-2,3.47-65.81-36.28-67.18-33.9-1.64,2.84,62.46,31,60.26,34.79-1.16,2-65.7-35.82-67.5-32.71-2.88,5,68.35,34,66,38.11-1.44,2.49-50.88-29.45-52.42-26.77-3,5.12,61.37,30.54,59.25,34.21-2.28,4-59.88-35-61.23-32.63s66.91,32.81,64.39,37.18c-2.74,4.74-69.62-41.87-71.36-38.86-2.91,5,64.67,31.87,62.3,36s-63.1-38.13-65.47-34C3,301,78,333.4,76,336.81c-1.75,3-67.28-39.68-68.9-36.87-2.85,4.93,64.33,31.87,62,35.83-1.46,2.53-46.65-24-48-21.73s56,27.7,54,31.17c-1.91,3.3-54.8-33.49-57-29.63-2.71,4.69,59,30.48,57.43,33.16-1.26,2.18-52.35-29-54-26.08-2.61,4.52,52.78,24.4,50.15,29-1.59,2.75-56.54-31.36-58-28.91-2.65,4.59,70.1,34.35,67.44,38.94-2.05,3.56-56.71-33.52-58.71-30.07C17,341.05,312.68,482.72,305.56,495,300,504.74,23.83,312.29,13.32,330.5c-7.52,13,310.24,154.57,299.61,173C302.14,522.18,26.41,329.64,20.6,339.7,9.7,358.59,301.88,483.95,294,497.57,285.26,512.75,25.91,332.4,19.09,344.22c-8.69,15,278.19,139.93,269.23,155.45C278.37,516.91,38.84,336.95,28.49,354.88,21.66,366.72,300.8,494.43,293.14,507.69c-5,8.64-265.16-165.95-271.92-154.24C15,364.26,290.64,496.31,285.14,505.84c-5.75,10-243.73-147.91-248.21-140.15-7.24,12.54,254,124.88,244.6,141.23-6,10.44-243.36-146.87-247.86-139.07C24.08,384.46,283.42,497.3,277,508.37c-8.08,14-235.33-153.76-243.46-139.68-9.33,16.17,244,117.61,233.95,135.08-4,6.86-217.76-143.5-226.83-127.79-5.36,9.29,230,122.43,225.52,130.21-6.17,10.69-223-144.84-230-132.73-4.87,8.43,232.48,116.82,224.94,129.88C256.49,511.49,48.4,372.48,43,381.83c-6,10.41,223.13,117.42,218.19,126C254.36,519.63,50.07,378.69,45.35,386.87c-6.47,11.21,219.86,109.76,212.42,122.65-6.37,11-203-130.56-211.4-116C39.32,405.7,252.09,503,248.06,509.94c-5.31,9.2-195.85-123-200.64-114.69-6.37,11,199.79,105.31,195.44,112.85C235.28,521.25,54.77,390.63,49,400.69c-4.06,7,192.62,99,187.33,108.17-5,8.66-169.86-101.89-173.22-96.08-6.68,11.57,168.62,89.72,165.31,95.45-6.25,10.83-161-97.18-164.77-90.72C60.48,423,221,496.21,215.76,505.36c-4,7-139.91-87.16-145.12-78.14-3.07,5.32,136.19,69.37,132.18,76.32-4.71,8.15-124-80.16-128.61-72.13-3.77,6.53,130.42,65.86,126.33,72.94-3.48,6-119-73-121.81-68.12s111.88,53.67,107.15,61.87c-2.06,3.56-89.09-53.62-92.08-48.44-3.15,5.45,73.87,35.62,70.82,40.89-2.52,4.36-68.07-42.44-69.87-39.32-2.1,3.63,76.43,38.35,73.93,42.69-1.17,2-49.13-29-50.87-26-1.41,2.44,33.4,17,32.39,18.7-.51.89-19.45-11-19.91-10.15-.6,1,8.12,3,7.4,4.27-.36.63-15-9.28-15.38-8.61s13.84,7.51,13.63,7.87" fill="none" stroke="#999" stroke-linecap="round" stroke-linejoin="round" stroke-width="1.1"/><path d="M179.85,185.5c-.14.86-52.64.51-50.72.29-1.17.42-1.54,61-.23,60.39-.61.45,51.4,1.33,50,.47,11.1-1.21,20.37-1.65,24.3-8.51,7-2.81,9.55-11.78,8.6-23.34.48-9.74-1.81-16.8-8.62-22A30.83,30.83,0,0,0,179.85,185.5Z" fill="none" stroke="#666" stroke-width="2.74"/><path d="M251.65,15.91c-135.75-6-255.88,94.37-243,249.15-7.08,134,106.89,241.81,246,236.78,136.54,15.89,256.14-100.3,247-241.3C514.76,118.81,391.1,13.21,251.65,15.91ZM216.73,365.63c0-5.14-3.85-19.21-2.37-24.26-.54-10.72-1.45-22.48-4-32.28-2.37-5.54-3.74-14.77-11.07-20.82-1.71-5.13-13.28-12.34-23.75-10.78-.68,5.65-49,4.41-45.71,1-1.63,4.09-2.44,87.28-.5,85.08-.39,1.61-48.44,4.72-49.21,1.68-1.82-4.3.5-213.8.51-217.19,0,3.48,116.39-.36,115.68-.55,9.4.7,19.16,4.29,24.48,6.45,8.85,5.3,18,2.41,20,11,6.37,10.25,13.37,12.64,14.17,23.25,3.77.15,4,14.2,2.79,19.06,1.3,14.37.12,28.18-7.91,36-3.47,4.45-11,11.43-25.78,19.49,2,1.23,2.86-2.55,1.08.67,6.86-.45,11.92,1.29,14.4,10,5.33.13,8.81,4.28,9.41,11.76,2.54,2.47,5.3,6.94,5.69,14.12,3.28.43,2.08,10.4.45,13.18.72,1.44,2.45,12.23,1.4,13.15,1.19,8.29,2,6.31.61,9.12.92,10.28,1.85,10.5,1.84,20,3.49,7,6.19,9.82,4.86,9.7C266.33,362.43,217.21,368.79,216.73,365.63Zm205.07-24.39c-1.46,7.75-8.6,8.89-14,16.37-6.27,3.47-13.91,4.45-23.47,4.59-9.22,6.84-16.35,7-26.45,5.23-6.79,1.27-18-3.12-25-5-9.75,3.68-18-.3-22-8.14-8.33-.11-14.5-6.82-16.74-14.9-5.27-6.31-8-12.7-9-24.46-1.42-4.34,41.35,1.06,40.55-3.68.78,9.47,1.5,10.56,3.79,11.34.73,6.26,4,10.53,6.3,9.42,2.67,6.26,8.07,2.37,10.55,3.36,3.29,7,9.52,4.56,13.36,5,2.46-3.19,4.68,1.26,8.2-3.84,3.21,2.31,7.4,3.31,8.89-.52,3.38-4,6.61-6.07,6.66-7,3.07-.82,4.67-7.32,3.51-9.3.54-7.47-3.6-12.87-12.54-12.18-8.13-5.5-19.86-8.57-35.09-9.39-7.73-3.2-13.1-5.27-17.61-5.38-6.31-6.24-13.14-5.36-17-9.61-6.62-5.57-9.16-4.4-10.4-10.63-4.62-3.35-5.74-14.26-4.49-20.81-2.37-7.88-.3-19.49,5.39-19.47a34.45,34.45,0,0,1,15.26-15.9c6-8.43,12.29-10.41,23.31-6.28,5.19-5.86,15.9-5.5,24.26-4.47,6.39.72,16.74-2.12,22.67,3,10-4.24,16.76,3.3,22.88,3.43,6.23,5.27,10.32,8.12,12.92,18,6.2,8.47,9.09,16.3,9.42,27,1.18-4.09-41.71-5.32-40-.8-.23-11.08-5.12-13.73-10-18.22-6.1-3.27-11.55-3.4-19.22-4.16-4-.71-6.3-.91-9.51,0-3.57-.36-3.58-.89-6.24,3.06-2.32-2-4,.69-6.89,3.46-.93-1.43-2.38,3.82-2.38,7-1.23,2.1,2.88,6.2,4.62,11.06,2.51-.66,6.28,0,10.82.85,4.27,4.89,9.09,7.74,15.87,4.2,5.28,4.81,11.7,4.52,15.89,6.53,6.56,4.07,14.73,4.21,18.62,2.31,7,7,12.45,10.49,16.57,11.61,6.13-.47,10.32,7,10.19,12.22,4.23,5.11,6.67,8,3.6,16.05C430.22,322.08,426.92,336.11,421.81,341.25Z" fill="none" stroke="#666" stroke-width="2.74"/><path d="M179.17,185.6c.68.76-49.68.14-51.2,0,.79.29,1,60,.1,61.39,1-1.1,52.49-1.07,52.37,0,9.2-1,18.15-3.44,25-7.38,5.17-6,6.05-13.14,6.56-24.06-1.9-10.75-3.21-17.28-7.48-22.75C197.9,189,191.14,185.73,179.17,185.6Z" fill="none" stroke="#4c4c4c" stroke-width="2.05"/><path d="M250.53.81C109.49,13.63,12.94,120.72,5.14,260.93,6,392.13,110.69,511.34,251.45,511.19c135.49-2,255.45-110.44,254.38-250.33C502.59,117.64,400.1,4.29,250.53.81ZM217.24,363.45c-4.69-5.57-.72-15.58-1.5-22.23-2.95-13.8-6.39-19.55-5.76-29.15-3.2-10.92-3.56-17.66-10.41-23.06-5-8.08-10.94-10.69-25.87-8.56,1.89.09-43-2.11-45.42,0,.79-1.57,1.22,81,.21,86,1.25-3.9-44.72-3.8-47.24.08-1-3.45,1-216.06,1-216.93,3-.78,113.43,1.48,113.17-1.45,6.74.57,18.37,5.5,27.84,5.34,5.29,6.26,12.67,7.1,19.19,10.44,1.46,9,5.88,13,11.67,22.22,2.49,8.84,6.07,16,4.28,22.63-.44,11.29-5.74,22.53-3.12,34-13,7.61-15.29,15.28-26.6,19.76-6.5,1.44-1-.4-4.09,1,8.89-1.37,12.5,4.24,19.6,4.38,0,4.91.15,7.27,3.14,13.8a95.17,95.17,0,0,0,10.88,17.24c-1,2.25-5.26,6.79,2.68,15.85-1.93.83-6.25,6.75-1.36,11-3.59,3.62,0,9.17,2.13,14.37-5.23,3.34-3.62,7.6-2.24,13.52-2,2.59,6.26,5.43,8.47,11.8C267,362.2,220.64,360.64,217.24,363.45ZM422.81,339c-6.32,8.3-7.26,12.28-13.6,18.63-8.75.6-18.23,6-25.27,7.54-9.63,1.08-15.85,3-26.29,4-8.46-3.38-15.22-4.31-26.77-3.24-6.5-2.95-12.72-7.6-21.5-9.07-5.78-6.41-10.88-12.19-16.51-15.78-2.72-9.24-4.47-17.74-6.85-26.19-.77-1.54,40.94-1.75,41.73-.24,1.49,1.79-.65,7.43.1,10.89.63,1.28,5.42,6.54,8.66,8.67,2.33,2,6.42,1,9.79,2.84,2.06,1.39,6.27.21,11.46,4,3.94-.78,8.74-1.46,9.48-1.5,4-3.38,4.92-4.15,12.93-2.61-2.55-3.86,4.58-5.27,6.56-7.19-3-2.15,2.17-7.12-.46-9.24,2.67-9.18-2.45-11.51-9-16.89-10.64-2.11-24.67-6.42-40.84-8.2-4,0-9.21-1.7-14-3.33-5.47-3.71-14.59-6.82-15.61-8-3.88-4.11-11-6.48-12.78-12.69-3.1-4.06-2-9.07-3.41-17.38-1.77-9.09.8-17.41,2.3-25.08,4.05-5,14.34-10.63,18.3-14.77,8-3.22,15.77-5.19,19.67-8.32,10.83-1.13,17.6-.52,24.88-2.59,6.9,1.14,20.44,2.44,25.65,3.37,7.59,1.91,14.71,3.9,21.37,5.68,5,7.13,9.41,12.88,16.67,15.42,1.51,9.38,4.89,16.46,4.12,25.47-1.67,2.14-37.69,1.34-39.67-1.39-.65-4.87-3.51-9.95-7.46-15-5.24-3.78-10.83-3.58-21.68-4.39-2.21,1-2.74-.42-9-.52-.84.83-2.25,3.19-7.19,1.37-1.86,3.07-1.49,5.13-3.86,4.06-1.85,5.12-3.92,7.48-1.73,10.43.1,4.65-1.13,6.58,1.2,7.27,5.34,2.49,7.11,5.07,12.73,6.71,3.86,1.84,8.54,4.2,15.62,4.92,5.7.59,9.7,1.89,17.53,2.23,6.23,2.45,11.11,3.56,19.27,4.67,3.91,4.26,7.89,6.84,15.45,10,2.71,1.49,7.54,7.75,11.62,12.33-1.33,4.68,5,10.7,1.27,17.81C427.81,324.16,428.9,330.62,422.81,339Z" fill="none" stroke="#4c4c4c" stroke-width="2.05"/></svg>