<svg id="Layer_1" data-name="Layer 1" xmlns="http://www.w3.org/2000/svg" xmlns:xlink="http://www.w3.org/1999/xlink" viewBox="0 0 512 512"><defs><linearGradient id="New_Gradient_Swatch_2" x1="256" y1="512" x2="256" gradientUnits="userSpaceOnUse"><stop offset="0" stop-color="#961b1e"/><stop offset="1" stop-color="#ec1c24"/></linearGradient></defs><title>warning</title><path d="M512,412.3A99.7,99.7,0,0,1,412.3,512H99.7A99.7,99.7,0,0,1,0,412.3V99.7A99.7,99.7,0,0,1,99.7,0H412.3A99.7,99.7,0,0,1,512,99.7Z" fill="url(#New_Gradient_Swatch_2)"/><path d="M175,0h-18.7a72.44,72.44,0,0,0-6.89,25.59,75.27,75.27,0,0,0,1.18,19.5c1.65,8.73,5.52,20.3,11.83,35.38l42.37,97.66c9.12,21.74,19.92,50,32.09,84.11l3.08,8.62a79.67,79.67,0,0,0-18.6,18.61,73.61,73.61,0,0,0-12.88,57.48c3.85,20.32,15.34,37.11,33.2,48.62,17.71,11.39,37.08,15.22,57.54,11.33,20.26-3.85,36.78-14.47,49.1-31.59a72.81,72.81,0,0,0,13.07-57.4c-3.84-20.2-15.27-37.06-33.07-48.75a79.14,79.14,0,0,0-24.11-10.32c-.15-4.61-.29-9.27-.29-9.27-1.06-35.67-1.38-65.93-.93-90l2-61.27c0-.11,1.77-46.6,1.77-46.6.32-14.88-.36-26.6-2.11-35.83A74.73,74.73,0,0,0,299.74,0H175Z" fill="#70090a"/><path d="M323,284.28q-19.68-11-40.66-5.44-21.25,5.65-32.9,25t-6.14,40.07q5.51,20.76,25.14,31.48t40.87,5.08q21-5.55,32.69-24.62T348.18,316Q342.67,295.27,323,284.28Z" fill="#fff"/><path d="M169.88,6.94q-11.57,19-6,40,2.75,10.37,12.59,29.83T197.2,116.5q12,21.93,28.53,54.69t38.59,82.71l21-5.57q-5.5-53.77-7.48-90.82t-2.45-62.05Q274.72,69,273.8,49.53c-.65-13-1.93-23.22-3.91-30.69A49.28,49.28,0,0,0,260.35,0H175A57.49,57.49,0,0,0,169.88,6.94Z" fill="#fff"/></svg>