<svg id="Layer_1" data-name="Layer 1" xmlns="http://www.w3.org/2000/svg" viewBox="0 0 512 512"><title>SEO-copywriting</title><g id="SEO-copywriting"><g id="label"><path d="M256,512C114.84,512,0,397.16,0,256S114.84,0,256,0,512,114.84,512,256,397.16,512,256,512Zm0-490.54C126.68,21.46,21.46,126.67,21.46,256S126.68,490.54,256,490.54,490.54,385.32,490.54,256,385.32,21.46,256,21.46Z" fill="#34495e"/></g><path id="SEO-copywriting-2" data-name="SEO-copywriting" d="M174.17,367.32l-43.31,6.12L137,330.18l6.19-43.3L180.31,324l37.12,37.13Zm179.24-142.6-12.35-12.36L229.68,323.76l-12.37-12.35L328.69,200,303.9,175.23,192.52,286.6l-12.38-12.36,111.4-111.38L279.17,150.5,155.42,274.24l74.26,74.24Zm37.44-35.34-.33-.32a11.79,11.79,0,0,0,1.79-1.16c6.55-6.51,6.33-17.44-.49-24.25l-49.48-49.51c-6.79-6.79-17.72-7-24.24-.5-.5.55-.74,1.24-1.19,1.81l-.31-.31-23.76,23.76,74.26,74.24ZM114.92,379.32V397H397.08V379.32Z" fill="#34495e"/></g></svg>