<svg id="Layer_1" data-name="Layer 1" xmlns="http://www.w3.org/2000/svg" viewBox="0 0 512 512"><title>question_mark</title><path d="M195,114.63c0,.07,9.37,2.85-5.7,2.58l-29.64-5.82c-2.79,1.07-5.56,2.21-8.34,3.41L142.4,114c.39,0-1.86-2.25-3.62-18.2a80.86,80.86,0,0,1,4-35.36C148,45.05,161.19,25,189.8,12.19c.1.3,10.66-6.42,32.35-10.35a148.39,148.39,0,0,1,91.36,14.61c-.09,0,8.33,3.73,20.79,13.61,12.23,9.59,28.54,27.27,35.11,50.37,7.05,23.4,5.36,47.3-4.7,72.52-11.34,24.83-34.08,43.81-56.47,58.19-22.42,14.68-45,26.93-61,41.24-16.72,14-24.85,29.89-27.68,46.47-3.84,33.46,3.15,65.91,1,72.77.19.06-1-15.86-3-38-2-22.3-1.05-48.71,16.17-68.92,16.48-20,45.35-35.35,67.3-49.42,22.54-13.77,37.65-27.93,40-31.37.08,0-11.81,11.69-31.84,24.48-19.66,13-47.5,26.71-67.73,44.74-43.95,34.15-22.73,102-27.56,110,.18.08-1.33-14.34-2.82-34.92-1.7-20.63.11-46.6,16.92-66.88,16.25-20.1,43-35.33,63.62-48.9,21-13.38,35.27-26.35,37.7-31.07a196,196,0,0,1-27.92,20.54c-17.49,11.26-42.45,23.83-63.39,40.46-21.78,16.13-33.86,40-35.76,62-2.22,21.82-.34,39.59-1.46,45.67-.17,0-2.44-39.28-1.24-49.49a144.58,144.58,0,0,0-2,17.95,121.51,121.51,0,0,1,2-29.13,81,81,0,0,1,6.12-15.44c-.13-.09-5.33,10-8.08,21.53S194,319.48,193,321c0,0,.94,5.38,1.16.18.14-2.59-.16-7.83.39-17.67.81-9.64-2.42-23.31,8.18-41.66-.1.08,3.6-14.7,22-29.81,17.88-15.64,37.15-29.38,70.37-57.51,16.13-14.24,37.2-31.61,37.87-57,2.51-24.59-.79-43.35-28.09-63.16-28-17.13-52.55-19.87-81.76-7.59C192.82,58.84,186.15,84,195,114.63Z" fill="#e6e4e3"/><path d="M285.32,457.1c0-.1,8,3.8-6.09,1.56l-11.43-.89c-2.86.19-5.71.24-8.53.2l-8.08-2c-.22.15,0-1.28-1.18-5.72-2.08-4.1-2.84-9.67-21.11-10.52.74-.07-16.5,2-29.5,11.18,0,0-6.47,3.47-8.35,10.94-1.34,3.38-.35,11.09,2.14,17.3,2.66,5.52,5.51,8.71,12.8,10.54,14.84,4,39.11-4.56,49.06-13.7,9.73-10.4,6.26-7.66,6.62-11.45.35.25,1.89,2.57.56,4.47-.55,3-9.63,12.15-21.5,16.66-11.65,5-24.9,6.41-32.5,4.9-7.84-1.32-10.12-4.21-11.41-4.14a17.83,17.83,0,0,0,8.09,4.71c6.15,2.27,18.3,2.6,30.45-1.11,12.09-3.37,23.71-10.65,28.3-16.6,4.54-5.63,3.5-8.31,3.7-10.41,0,.17,2.39,3.13.07,8.48-2.26,5.82-12,14.39-23.85,19.46-11.77,5.35-25.14,7.54-34.5,6.9s-14.79-3.35-17-3.47a28.69,28.69,0,0,0,11,5.78c7.63,2.57,20.23,2.89,32.89-.31s25.23-9.27,33.24-16.66a29.48,29.48,0,0,0,10.33-19.66A20.76,20.76,0,0,1,278,474.09c-2,5.29-6.43,9.85-7.94,12a39.26,39.26,0,0,0,6.91-6.63,42.9,42.9,0,0,1-9.9,11.65,61.51,61.51,0,0,1-7.75,4.38,80.19,80.19,0,0,0,10.86-6.08c5.49-3.38,10.21-8.9,11.5-9.48,0,0,.66-3.1-1-.49-2,2.07-5.4,11.46-24.73,23.24A128.7,128.7,0,0,1,238,508.83c-11.47,2.41-31.17,7.41-51.59-4.11-9.9-5.89-17.1-17.34-20-30.42A44.15,44.15,0,0,1,178,431.6c12.21-12.41,30.15-20.26,51.12-21.68,10.51-.34,22.48.53,34.84,7.9C276.77,424.81,285.75,442.26,285.32,457.1Z" fill="#e6e4e3"/></svg>