<svg id="Layer_1" data-name="Layer 1" xmlns="http://www.w3.org/2000/svg" viewBox="0 0 512 512"><title>hammer</title><g id="hammer"><rect id="label" width="512" height="512" fill="#446d85"/><g id="hammer-2" data-name="hammer"><path d="M263.66,366.05H121.16a6,6,0,0,0-6,6v15.85a6,6,0,0,0,6,6h142.5a6,6,0,0,0,6-6V372A6,6,0,0,0,263.66,366.05ZM395.25,334.8,306.41,246a5.35,5.35,0,0,0-7.53,0l-1,1L281.77,230.8l14.7-14.7a5.34,5.34,0,0,0,0-7.53l-45.65-45.65a5.35,5.35,0,0,0-7.53,0L200.21,206a5.33,5.33,0,0,0,0,7.53l45.65,45.65a5.33,5.33,0,0,0,7.53,0l14.73-14.73,16.13,16.12-1,1a5.35,5.35,0,0,0,0,7.54l88.84,88.84a5.34,5.34,0,0,0,7.53,0l15.6-15.59A5.35,5.35,0,0,0,395.25,334.8ZM310.44,212.65a5.34,5.34,0,0,0,7.53,0l21.7-21.7a5.33,5.33,0,0,0,0-7.52L276,119.71a5.34,5.34,0,0,0-7.52,0l-21.71,21.71a5.34,5.34,0,0,0,0,7.53Zm-89.71,89.7a5.33,5.33,0,0,0,7.53,0l21.43-21.44a5.33,5.33,0,0,0,0-7.53L186,209.69a5.36,5.36,0,0,0-7.54,0L157,231.12a5.37,5.37,0,0,0,0,7.53Z" fill="#fff"/></g></g></svg>