<svg id="Layer_1" data-name="Layer 1" xmlns="http://www.w3.org/2000/svg" viewBox="0 0 512 512"><title>resume</title><path d="M108.42,195s3.22,13.39-3.27,1.3L100,195.15l-3.85-2.76-.86-.46c.37.38-4.54-30,13.28-45.73-.05.12,9.56-10.29,18.75-12.83-.29.19,22-8.24,45.29,1.76,11.43,4.68,22.7,16.08,29.3,24.62,6.77,8.44,10,16.05,10.18,18.38,0,.13-6.8-15.17-18.85-26.45C181.5,140,166,135,164.23,136a69.24,69.24,0,0,1,24.94,14.92c11.63,10.39,18.77,25.81,18.33,29,0,.14-6.16-13.24-16.91-22.82-10.49-10-24.29-13.86-26.69-11.25A59.94,59.94,0,0,1,184,158.74c9.39,8.77,15.35,21.76,14.93,25.85.17-.09-3.72-8.55-5.74-9.68.59,1.41,1.08,2.9,1.6,4.29-1.28-1.68-2.61-3.32-4-4.85-.57-1.25-1.25-2.4-1.9-3.59.22-.11,4.73,10.15,3.77,12.11-.22.34,4.66.8-7.83-10.13.08.47-6.38-4.83-22.79-8.6-8-1.75-18.24-.8-28.39,5.13S114.31,179.89,108.42,195Z" fill="#231f20"/><path d="M142.17,130.38s2.19-3.37,2.14,2.16l.87,4.43c.69,1.09,1.35,2.17,2,3.26l-.62,3.22c0,.1-1.35-.07-9.12,1.14a42.63,42.63,0,0,0-15.4,5.83c-5.94,3.87-12.19,11.1-13.82,23.29a58.94,58.94,0,0,0,.29,13.16,86.26,86.26,0,0,0,11,31.85,69.76,69.76,0,0,0,4.64,7c3.2,4.19,8.42,10.13,15.91,13.77a23.83,23.83,0,0,0,25.33-2.28c8.43-6.31,15.06-18.24,18.72-30.64s4.81-26.15,2-37.55c-2.42-11.21-11.16-18.89-19.94-22.42-9-3.43-18.63-2.77-25.8-1.9s-12.4,2.17-14.46,2.44a120.62,120.62,0,0,1,20.84-3.46c12.42-1.17,28,2.71,36.24,16.41,6.78,11.92,5.57,30.57,2.37,42.64a96.07,96.07,0,0,1-8.84,22.41A76.22,76.22,0,0,0,184.41,208c3.53-10.78,6.36-27.06,2.27-41.53a38.52,38.52,0,0,0-1.94-5.08l-.59-1.2-.14-.29,0-.08c.08.14-.24-.36.19.3l0,0-.1-.14-.4-.59c-.52-.79-1.06-1.58-1.63-2.31a37.14,37.14,0,0,0-7.67-7.75,37.64,37.64,0,0,0-18.87-6.89c-12.91-1.1-23.18,1.56-25.68,1.55a103.73,103.73,0,0,1,19.73-2.62c11.8-.73,27.23,4,35.48,17.39,7.2,12.26,6.28,30,3.79,42.17-2.54,12.66-6.93,21.3-7.73,23.89a79.91,79.91,0,0,0,7.19-16.24c3.28-10.18,6.13-25.07,3.16-39.69-2.27-14.8-15.62-26.35-28.23-29.38-12.79-3.16-23.45-1.19-27.1-1.25a102.7,102.7,0,0,1,12.42-1.09A66.41,66.41,0,0,1,165.43,139a48.8,48.8,0,0,0-10.64-2.28,46.73,46.73,0,0,1,17.07,4,39.31,39.31,0,0,1,8.25,5.67,42.1,42.1,0,0,0-11.7-7.39c-6.65-2.92-14.32-3.59-15.28-4,0,0-3.23.23-.08.42a71.92,71.92,0,0,1,10.62,1.42,42.71,42.71,0,0,1,23.21,13.63c-.39,0,6.06,5.48,8.55,18.91,2.44,13.06,1.92,33.51-9.12,56-5.59,10.61-14.78,23.71-31.12,26.19-16.31,2.77-32.77-8.25-42.9-22.52-10.33-14.46-17.79-32.83-16.85-53.67.62-10.27,4.14-21.73,13-30.51S130,131.52,142.17,130.38Z" fill="#231f20"/><path d="M118.61,246s-3.27.92,2.19-.77l4.36-1.39,3.16-1.15,3.2-1c-.08.05,1.2,0,4,4.57a6.51,6.51,0,0,1,2.41,4.47,47.76,47.76,0,0,1-1,9.33c-.93,4.49-2.39,8.62-3.43,9.1,0,.14,4.26-9.91,3.28-10.9.13.2-3.47,9.92-5.44,10.26,0,.12,4-9.13,1.6-10.3.12.12-3.42,8.56-5.92,9.19,0,0,1.16-1.51.94-2l-.81.67.27-1.22.62-.63s-1.83,1.7-2.68,1.73c0,0,.86,1,1-2.49a8.51,8.51,0,0,0,1.77-5.45C128.25,254.8,126.28,248.37,118.61,246Z" fill="#231f20"/><path d="M165.41,238.15s-3.27-1,2.31.35l4.46,1,3.32.61,3.23.82c.05,0,.74.71,1.78,5.54a7.2,7.2,0,0,1,1.33,4.49c-.57-.18-1.38,18.07-2.66,19.82-.17-.08,1.89-11.87,1.25-12.49-.24-.1-2,11.18-3.48,12.34-.19-.08,1.77-11.21-.34-12.14-.2-.08-2.17,10.36-4.16,12,0,0,.67-2.11.37-2.63l-.61,1,0-1.54.47-.93s-1.43,2.52-2.19,2.79c0,0,1,1,.34-3.34a16.91,16.91,0,0,0,.94-7.15C171.56,254,169.81,248,165.41,238.15Z" fill="#231f20"/><path d="M127.41,257.5s1.14-3.17.3,2.3l-.37,4.41.13,3.29-.66,3.16c.15.4-2.05-.42-18.06,2.26,0,.11-6.21,2.16-13.45,5.1.13-.12-14.14,4.85-21.36,18.62-7.76,13.26-7.88,31-8.75,33.26a86.45,86.45,0,0,1,3-19.69c2.52-9.71,8.21-17.61,8.57-18.68a53.87,53.87,0,0,0-8.72,16c-3.35,9.06-4.21,19.59-5.08,21.11a101.25,101.25,0,0,1,2.79-18.88c2.26-9.44,7.34-17.77,7.41-19.64a59.22,59.22,0,0,0-8.63,15.38c-3.47,8.67-4.88,18.77-6,21-.08,0,1.09-6.93,1.08-8.77l-1,3.18c.17-1.73.32-3.48.59-5.2l.94-2.91c-.08,0-2.61,7.93-3.33,8.53.25,0,.17,3.78,2-11.08.3.13,2-8.9,10-22.14a59.07,59.07,0,0,1,20.43-19.69C99,262.48,112.31,258.72,127.41,257.5Z" fill="#231f20"/><path d="M177.38,275s-.08,3.32-.82-2.15l-.88-4.36-1.08-3.13-.3-3.21c.15.48,1.06-2.45,20.89-3.28a40,40,0,0,1,19.09,2.71,57.39,57.39,0,0,1,29.4,27.69c9.16,18.52,7,38.63,6,41a90.56,90.56,0,0,0-.61-23.08c-1.62-12-8.36-23.67-9.8-24.56a63.32,63.32,0,0,1,8.31,21.65c2.22,11.41.86,22.91-.07,24.46a85.47,85.47,0,0,0-.89-21c-1.68-10.9-7.78-21.46-10-22.27a57.62,57.62,0,0,1,6.82,18.6c1.92,9.9.82,20.26-.35,22.4.07,0,.76-7,.2-8.81l-.42,3.28c-.12-1.73-.19-3.46-.39-5.18l.12-3c.08,0-.57,8.25-1.5,8.8-.24,0,1.75,3.53-.69-10.74-.27.22.81-9.24-7.52-22.24a40.09,40.09,0,0,0-21.68-15.92C201.18,269.45,188.94,270.24,177.38,275Z" fill="#231f20"/><path d="M62,339.09s-1,3.28-.93-2.24l-.4-4.43-1-3.24.29-3.22s2.62-.92,31.62-2.76a193.35,193.35,0,0,1,27.27-1.83s113.52.94,122.06,2.89c0,0-71.18-2.77-75.67-1.89,0,0,68.08,2.27,73.32,4,0,0-66-2.62-71.92-.35,0,0,60.78,2.4,68.13,4.63,0,0-11.66-.88-14.78-.61l5.44.67-8.75-.09-5-.51s13.7,1.54,14.66,2.32c0,0,6.24-.94-18.5-.59C207.76,331.85,149.29,326.42,62,339.09Z" fill="#231f20"/><path d="M23.71,474.72s-2.52,8.5-2.36-5.8l-1-11.45-2.54-8.4.76-8.34s6.65-2.4,80.38-7.16a479.85,479.85,0,0,1,69.29-4.78s288.58,2.47,310.26,7.51c0,0-180.93-7.19-192.34-4.91,0,0,173,5.89,186.32,10.44,0,0-167.84-6.74-182.76-.91,0,0,154.49,6.2,173.19,12,0,0-29.66-2.32-37.58-1.61l13.84,1.75-22.27-.25L404,451.5s34.82,4,37.25,6c0,0,15.87-2.43-47-1.52C394.29,456,245.66,441.92,23.71,474.72Z" fill="#231f20"/><path d="M12.93,80.7s-2.54,8.5-2.37-5.8l-1-11.45L7,55l.76-8.34s6.63-2.39,80.37-7.16c0,0,29.49-4.77,69.33-4.77,0,0,288.56,2.47,310.24,7.51,0,0-180.93-7.19-192.34-4.91,0,0,173,5.89,186.32,10.45,0,0-167.84-6.74-182.78-.92,0,0,154.51,6.21,173.2,12,0,0-29.66-2.31-37.58-1.6L428.33,59l-22.25-.25-12.84-1.33s34.82,4,37.23,6c0,0,15.89-2.42-47-1.52C383.5,61.94,234.87,47.89,12.93,80.7Z" fill="#231f20"/><path d="M272.34,213.82s-.89,4.89-.82-3.33l-.35-6.59-.89-4.83.27-4.8s2.34-1.38,28.26-4.11a105.1,105.1,0,0,1,24.37-2.75s101.47,1.42,109.1,4.31c0,0-63.62-4.14-67.63-2.82,0,0,60.84,3.39,65.51,6,0,0-59-3.89-64.26-.54,0,0,54.31,3.56,60.89,6.9,0,0-10.44-1.33-13.21-.92l4.86,1-7.83-.14-4.51-.76s12.24,2.28,13.09,3.45c0,0,5.59-1.39-16.51-.88C402.67,203.05,350.4,195,272.34,213.82Z" fill="#231f20"/><path d="M272.34,254.23s-.89,4.89-.82-3.34l-.35-6.58-.89-4.83.27-4.79s2.34-1.38,28.26-4.12a105.38,105.38,0,0,1,24.37-2.74s101.47,1.41,109.1,4.3c0,0-63.62-4.13-67.63-2.82,0,0,60.84,3.39,65.51,6,0,0-59-3.88-64.26-.53,0,0,54.31,3.56,60.89,6.9,0,0-10.44-1.33-13.21-.92l4.86,1-7.83-.14-4.51-.77s12.24,2.29,13.09,3.45c0,0,5.59-1.39-16.51-.87C402.67,243.46,350.4,235.38,272.34,254.23Z" fill="#231f20"/><path d="M272.34,294.82s-.89,4.88-.82-3.33l-.35-6.59-.89-4.82.27-4.8s2.34-1.38,28.26-4.12a104.94,104.94,0,0,1,24.37-2.75s101.47,1.42,109.1,4.32c0,0-63.62-4.13-67.63-2.82,0,0,60.84,3.38,65.51,6,0,0-59-3.89-64.26-.54,0,0,54.31,3.57,60.89,6.9,0,0-10.44-1.33-13.21-.92l4.86,1-7.83-.13-4.51-.77s12.24,2.28,13.09,3.45c0,0,5.59-1.39-16.51-.87C402.67,284,350.4,276,272.34,294.82Z" fill="#231f20"/><path d="M509.5,428s8.47,2-5.76,1.89l-11.39.82-8.36,2-8.31-.59s-2.37-5.29-7.14-64.11a310.2,310.2,0,0,1-4.73-55.27s2.44-230.14,7.46-247.43c0,0-7.15,144.3-4.88,153.4,0,0,5.86-138,10.4-148.59,0,0-6.73,133.86-.91,145.78,0,0,6.16-123.21,11.93-138.13,0,0-2.31,23.64-1.58,30l1.72-11-.24,17.75-1.33,10.25s4-27.77,6-29.7c0,0-2.42-12.66-1.51,37.46C490.85,132.47,476.85,251,509.5,428Z" fill="#231f20"/><path d="M45.71,428s8.48,2-5.76,1.89l-11.39.82-8.38,2-8.3-.59S9.51,426.84,4.76,368A308.14,308.14,0,0,1,0,312.75S2.46,82.61,7.47,65.32c0,0-7.15,144.3-4.88,153.4,0,0,5.86-138,10.4-148.59,0,0-6.72,133.86-.91,145.78,0,0,6.18-123.21,11.93-138.13,0,0-2.31,23.64-1.58,30l1.72-11-.24,17.75-1.33,10.25s4-27.77,6-29.7c0,0-2.42-12.66-1.51,37.46C27.06,132.47,13.06,251,45.71,428Z" fill="#231f20"/></svg>