<svg id="Layer_1" data-name="Layer 1" xmlns="http://www.w3.org/2000/svg" viewBox="0 0 512 512"><defs><style>.cls-1{fill:#141f38;}</style></defs><title>user-plus-outline</title><path class="cls-1" d="M435.2,371.2A12.8,12.8,0,0,1,422.4,384H409.6v12.8a12.8,12.8,0,0,1-25.6,0V384H371.2a12.8,12.8,0,0,1,0-25.6H384V345.6a12.8,12.8,0,1,1,25.6,0v12.8h12.8A12.8,12.8,0,0,1,435.2,371.2Zm-2.1,81.93A173.81,173.81,0,0,1,435.2,480a32,32,0,0,1-32,32H57.6a32,32,0,0,1-32-32A172.84,172.84,0,0,1,166.4,310.18V277.27a128,128,0,0,1-64-110.87V128a128,128,0,0,1,256,0v38.4a128,128,0,0,1-64,110.87v32.91a171.5,171.5,0,0,1,29.85,8.45A89.61,89.61,0,1,1,433.1,453.13ZM230.4,268.8A102.52,102.52,0,0,0,332.8,166.4V128A102.4,102.4,0,1,0,128,128v38.4A102.52,102.52,0,0,0,230.4,268.8ZM192,288.54v29.77l38.4,23,38.4-23V288.54a128.66,128.66,0,0,1-76.8,0ZM408.25,460.08a89.67,89.67,0,0,1-101-88.88,89.45,89.45,0,0,1,5-29.7A145.91,145.91,0,0,0,290,335.42L230.4,371.2l-59.64-35.78c-68,13-119.56,72.86-119.56,144.58a6.41,6.41,0,0,0,6.4,6.4H403.2a6.41,6.41,0,0,0,6.4-6.4A147.71,147.71,0,0,0,408.25,460.08ZM460.8,371.2a64,64,0,1,0-64,64A64.07,64.07,0,0,0,460.8,371.2Z"/></svg>