<?xml version="1.0" encoding="UTF-8" standalone="no"?>
<svg
xmlns="http://www.w3.org/2000/svg"
version="1.0"
width="718"
height="198">
<path d="m 507.482,61.048 c 1.004,3.113 2.009,6.226 3.013,9.338 0.69,2.139 4.07,1.224 3.375,-0.931 -1.004,-3.113 -2.009,-6.226 -3.013,-9.338 -0.69,-2.138 -4.07,-1.223 -3.375,0.931 l 0,0 z m 1.68801,-0.465 3.01297,9.337998 M 173.039,67.253 c 0.334,4.002 0.668,8.005 1.003,12.007 0.187,2.232 3.688,2.25 3.5,0 -0.334,-4.002 -0.668,-8.005 -1.003,-12.007 -0.187,-2.232 -3.688,-2.251 -3.5,0 l 0,0 z m 1.75,-2e-6 1.00301,12.007004 M 576.707,51.243 c -0.036,9.796 -5.731,21.96 -9.723,31.15 -17.183,39.567 -42.193,75.924 -67.358,110.724 -1.325,1.833 1.713,3.577 3.021,1.767 25.465,-35.213 50.678,-71.991 67.944,-112.078 4.06,-9.423 9.576,-20.978 9.615,-31.563 0.009,-2.258 -3.491,-2.257 -3.499,0 l 0,0 z M 420.034,33.802 c 5.009,-3.9 13.156,-9.646 19.485,-13.716 5.185,-3.333 10.511,-6.504 16.105,-9.107 3.463,-1.611 8.424,-3.838 12.062,-3.072 2.451,0.517 2.716,3.164 2.226,6.155 -1.229,7.495 -5.243,14.662 -8.813,21.241 -18.598,34.265 -43.268,65.607 -66.909,96.442 -1.294,1.687 1.336,3.293 2.748,2.121 18.146,-15.072 36.01,-30.506 53.564,-46.262 12.029,-10.796 23.994,-21.738 35.163,-33.432 5.776,-6.048 13.392,-13.021 14.134,-21.883 0.204,-2.43 -1.521,-4.739 -4.086,-3.501 -3.583,1.729 -5.956,6.66 -7.776,9.914 -10.905,19.493 -16.104,42.182 -21.14,63.738 -1.722,7.372 -3.418,14.893 -3.822,22.475 -0.188,3.542 -0.094,8.765 3.302,10.947 3.567,2.292 8.119,0.217 11.469,-1.479 8.26,-4.182 15.579,-10.619 22.621,-16.527 -0.975,-0.567 -1.95,-1.135 -2.925,-1.703 -1.86,5.672 -0.516,12.422 5.822,14.244 7.615,2.189 16.929,-2.389 23.624,-5.393 0.917,-0.411 16.825,-7.343 16.875,-6.543 0.274,4.425 -7.088,13.232 1.831,13.975 4.837,0.402 10.792,-2.102 14.945,-4.327 6.024,-3.228 12.214,-6.192 18.575,-8.694 2.423,-0.953 15.108,-6.403 16.734,-2.331 0.718,-0.718 1.436,-1.435 2.152,-2.153 -5.466,-1.93 -13.565,-3.886 -18.469,0.192 -5.223,4.344 -0.458,19.433 6.5,19.671 5.71,0.196 9.628,-9.718 11.885,-13.625 0.48,-0.833 3.122,-6.158 4.408,-5.867 2.679,0.606 3.314,13.031 3.501,14.657 0.158,1.375 1.86,2.499 2.987,1.237 3.162,-3.538 6.65,-6.817 10.32,-9.821 5.02,-4.108 14.1,-10.318 15.877,-0.289 0.169,0.952 1.296,1.441 2.152,1.222 9.57,-2.447 19.266,-4.465 28.984,-6.214 8.222,-1.48 16.508,-2.681 24.847,-3.245 6.035,-0.407 12.796,-0.782 18.541,1.454 2.105,0.82 3.01,-2.565 0.93,-3.375 -5.43,-2.114 -11.702,-1.932 -17.421,-1.692 -8.222,0.345 -16.421,1.556 -24.528,2.91 -10.834,1.81 -21.639,4.066 -32.282,6.788 0.717,0.407 1.435,0.815 2.152,1.222 -3.487,-19.681 -25.964,1.759 -32.047,8.566 0.996,0.412 1.991,0.825 2.987,1.237 -0.428,-3.728 -0.842,-19.575 -7.932,-18.03 -4.691,1.022 -7.781,9.846 -9.939,13.415 -1.195,1.976 -2.869,5.232 -5.277,5.932 -3.04,0.883 -5.164,-8.992 -5.256,-10.585 -0.42,-7.309 12.348,-3.728 16.149,-2.385 1.183,0.418 2.639,-0.934 2.152,-2.153 -1.978,-4.953 -8.078,-3.912 -12.265,-2.959 -7.387,1.681 -14.495,5.079 -21.278,8.369 -5.021,2.436 -9.542,4.955 -14.943,6.531 -3.733,1.089 -7.146,2.109 -5.603,-2.514 0.843,-2.523 2.72,-5.511 1.956,-8.264 -1.091,-3.93 -6.858,-1.876 -9.295,-1.015 -5.648,1.997 -37.461,20.674 -37.622,4.853 -0.014,-1.364 0.217,-2.772 0.643,-4.069 0.591,-1.802 -1.685,-2.744 -2.925,-1.703 -7.333,6.152 -15.141,13.264 -24.096,17.011 -4.845,2.027 -7.065,0.338 -7.337,-4.756 -0.429,-8.067 1.921,-16.482 3.713,-24.266 2.992,-12.999 6.301,-25.974 10.533,-38.627 3.117,-9.32 6.771,-18.653 11.885,-27.08 1.154,-1.902 2.424,-3.797 4.063,-5.317 0.967,-0.897 0.452,0.186 -0.369,-0.916 0.114,0.152 -0.006,1.177 -0.066,1.567 -1.449,9.246 -11.512,17.255 -17.681,23.475 -26.387,26.604 -55.265,50.988 -84.074,74.918 0.916,0.707 1.832,1.414 2.748,2.121 16.242,-21.184 32.229,-42.592 47.188,-64.708 8.491,-12.555 16.876,-25.392 23.497,-39.056 2.853,-5.888 11.974,-25.558 -1.691,-25.456 -10.259,0.077 -21.177,8.06 -29.399,13.385 -6.597,4.271 -13.044,8.822 -19.245,13.651 -1.778,1.384 0.718,3.843 2.476,2.474 l 0,0 z M 99.797,37.435 C 92.941,68.076 83.026,99.872 66.877,126.91 59.513,139.24 50.23,149.56 35.57,152.239 25.978,153.992 14.227,151.157 10.687,141.044 5.075,125.01 20.211,105.977 29.551,94.764 46.19,74.786 66.899,57.006 89.871,44.718 c 12.511,-6.692 29.949,-14.344 44.396,-9.715 13.303,4.262 9.128,20.126 4.692,29.513 -4.753,10.057 -11.747,19.036 -18.964,27.418 -4.598,5.341 -9.504,10.411 -14.515,15.363 -2.041,2.017 -3.596,3.678 -6.051,4.968 -5.137,2.699 -10.371,5.218 -15.698,7.518 -5.515,2.38 -11.866,5.242 -17.981,5.279 -1.987,0.012 -2.775,-0.713 -2.354,-2.688 1.047,-4.913 5.058,-9.872 9.346,-12.287 4.342,-2.445 9.069,-0.203 11.74,3.494 3.515,4.865 3.236,11.471 1.806,16.981 -1.008,3.886 -6.541,12.496 -0.552,15.284 4.625,2.153 11.25,-1.382 15.384,-3.252 7.068,-3.198 13.53,-7.434 20.328,-11.124 -0.857,-0.659 -1.714,-1.318 -2.571,-1.977 -1.449,4.429 -2.43,10.286 -0.011,14.521 6.351,11.124 27.587,-6.099 32.707,-9.875 -0.707,-0.091 -1.414,-0.183 -2.121,-0.274 5.181,4.638 13.823,4.277 20.113,3.175 9.587,-1.68 18.556,-6.593 26.632,-11.801 6.872,-4.431 13.527,-9.448 19.154,-15.409 11.522,-12.205 22.191,-29.783 24.937,-46.611 0.354,-2.171 0.98,-6.928 -2.207,-7.445 -3.679,-0.597 -6.82,4.509 -8.596,6.947 -6.075,8.338 -10.802,17.742 -15.446,26.918 -8.953,17.691 -16.939,35.874 -24.697,54.113 -0.856,2.014 1.928,3.807 3.022,1.767 2.466,-4.596 5.326,-9.089 8.683,-13.083 1.377,-1.639 4.257,-5.318 6.777,-4.779 4.056,0.867 3.349,13.029 3.37,15.645 0.011,1.326 1.479,2.181 2.633,1.511 5.247,-3.045 10.595,-5.924 15.994,-8.69 4.191,-2.147 8.44,-4.201 12.798,-5.987 2.807,-1.151 6.369,-2.839 9.487,-2.43 -0.155,-1.146 -0.31,-2.292 -0.465,-3.438 -10.636,1.489 -18.582,9.129 -13.096,19.917 0.271,0.533 0.926,0.876 1.511,0.867 7.719,-0.132 11.965,-6.782 12.795,-13.758 -1.167,0 -2.333,0 -3.5,0 0.382,3.729 2.091,7.339 5.227,9.493 8.037,5.52 19.483,-4.818 24.873,-9.59 -0.975,-0.257 -1.95,-0.515 -2.925,-0.772 1.001,3.063 3.135,5.706 5.864,7.388 6.751,4.162 14.922,-1.188 20.157,-5.281 -0.975,-0.567 -1.95,-1.135 -2.925,-1.703 -0.49,2.922 -0.654,6.124 0.171,8.994 1.701,5.921 7.53,4.373 11.433,1.626 5.094,-3.584 9.273,-8.51 13.251,-13.241 7.693,-9.151 14.597,-18.976 21.344,-28.832 6.869,-10.033 13.114,-20.433 18.617,-31.278 7.18,-14.149 14.134,-29.482 17.119,-45.174 0.506,-2.66 1.717,-7.475 -0.932,-9.426 -2.883,-2.125 -6.3,3.594 -7.417,5.311 -9.448,14.513 -15.494,31.751 -21.724,47.782 -14.494,37.296 -26.875,75.426 -38.81,113.603 -0.675,2.16 2.704,3.077 3.375,0.931 13.786,-44.101 27.965,-88.353 45.813,-131.014 3.861,-9.229 7.876,-18.527 12.924,-27.183 1.12,-1.922 2.295,-3.895 3.817,-5.532 1.445,-1.556 0.568,-0.135 -0.066,-1.159 -0.059,-0.093 0.106,0.398 0.129,0.737 0.054,0.819 -0.013,1.647 -0.094,2.461 -0.232,2.334 -0.795,4.648 -1.366,6.918 -1.848,7.342 -4.479,14.497 -7.328,21.501 -10.403,25.569 -25.408,48.832 -42.133,70.697 -2.039,2.666 -19.358,26.076 -23.911,21.637 -1.662,-1.621 -1.089,-6.931 -0.838,-8.429 0.302,-1.802 -1.52,-2.802 -2.925,-1.703 -5.911,4.621 -16.87,9.543 -20.172,-0.563 -0.423,-1.293 -1.919,-1.662 -2.925,-0.772 -4.127,3.653 -14.778,13.75 -21.106,8.704 -1.769,-1.411 -2.867,-4.648 -3.019,-6.131 -0.232,-2.267 -3.234,-2.235 -3.5,0 -0.572,4.81 -2.832,8.734 -7.671,10.022 -2.125,0.566 -0.756,-0.163 -0.689,-0.032 -1.098,-2.159 -1.486,-4.794 -0.5,-7.053 1.839,-4.212 7.897,-6.003 12.081,-6.588 2.14,-0.3 1.289,-3.207 -0.465,-3.438 -7.049,-0.926 -16.149,4.947 -22.143,7.93 -6.066,3.019 -12.042,6.254 -17.903,9.655 0.878,0.504 1.755,1.007 2.633,1.511 -0.05,-6.286 -1.13,-25.31 -12.051,-17.271 -5.791,4.263 -9.951,11.478 -13.302,17.723 1.007,0.589 2.015,1.178 3.022,1.767 9.39,-22.079 19.052,-44.166 30.53,-65.257 2.861,-5.256 5.863,-10.47 9.317,-15.362 1.232,-1.746 3.429,-4.934 5.106,-5.626 0.348,-0.144 -0.298,-0.147 -0.424,-0.456 0.27,0.66 0.213,1.354 0.153,2.274 -0.186,2.869 -1.109,5.741 -1.991,8.457 -2.839,8.754 -7.145,17.086 -12.12,24.806 -9.518,14.768 -23.033,25.732 -38.645,33.757 -8.102,4.165 -24.725,10.12 -32.367,3.278 -0.542,-0.485 -1.472,-0.752 -2.121,-0.274 -3.21,2.368 -24.53,19.349 -28.25,10.517 -1.413,-3.354 -0.394,-7.875 0.697,-11.209 0.499,-1.524 -1.287,-2.673 -2.571,-1.977 -4.935,2.679 -9.677,5.692 -14.647,8.316 -3.921,2.071 -13.201,8.076 -17.897,5.89 -2.175,-1.013 1.062,-7.106 1.572,-8.333 2.005,-4.82 2.466,-10.122 1.673,-15.242 -1.095,-7.07 -6.59,-13.521 -14.063,-13.491 -7.898,0.032 -13.919,8.594 -16.143,15.287 -1.264,3.804 0.502,7.255 4.623,7.625 5.516,0.495 11.36,-1.953 16.382,-3.914 5.898,-2.303 11.637,-5.029 17.282,-7.891 6.007,-3.045 9.955,-7.3 14.75,-12.219 8.544,-8.763 16.553,-18.162 23.24,-28.431 6.437,-9.885 14.427,-24.786 8.457,-36.647 C 139.9,29.457 126.39,29.527 117.044,31.062 98.07,34.182 80.338,45.1 65.183,56.39 45.267,71.226 25.726,89.839 13.389,111.616 c -5.773,10.191 -10.905,24.543 -3.634,35.31 5.486,8.124 16.336,10.225 25.46,8.887 12.654,-1.854 22.23,-9.323 29.611,-19.42 13.144,-17.981 21.116,-40.001 27.981,-60.994 3.978,-12.165 7.569,-24.538 10.366,-37.033 0.492,-2.199 -2.883,-3.134 -3.376,-0.931 l 0,0 z" />
</svg>
